<?xml version="1.0" encoding="UTF-8"?>
<svg width="200px" height="145px" viewBox="0 0 200 145" version="1.1" xmlns="http://www.w3.org/2000/svg" xmlns:xlink="http://www.w3.org/1999/xlink">
    <title>ShipStation Partner Logo - Purolator</title>
    <g id="ShipStation-Partner-Logo---Purolator" stroke="none" stroke-width="1" fill="none" fill-rule="evenodd">
        <g id="purolator_canada" transform="translate(25.000000, 62.000000)" fill-rule="nonzero">
            <g id="Group" transform="translate(92.495044, 4.832334)" fill="#EF3829">
                <path d="M12.7999395,0.52194739 C10.2277828,0.52194739 7.89721314,1.23418189 6.64871499,1.77998973 L5.18487625,4.91704267 C6.59264292,4.27400349 8.51639188,3.62499919 10.4592292,3.62499919 C12.4772269,3.62499919 12.5684932,4.63966492 12.1205132,5.60183765 L12.0024039,5.85296891 C7.31800067,5.86191658 2.86623681,7.60372958 1.04091222,11.5150542 C-0.124074351,14.0180156 0.739674016,16.0771726 3.57608526,16.0771726 C5.23021111,16.0771726 6.94637413,15.4735032 8.44540703,14.2983759 L8.53309419,14.2983759 L8.10539559,15.7795135 L12.2189375,15.7795135 C12.4748409,14.8650617 13.0099115,13.5712287 13.6290903,12.2445875 L16.1314552,6.87837184 C17.6728404,3.57429573 17.8213717,0.52194739 12.7999395,0.52194739 M9.89075392,10.6751663 C9.77025863,10.9334557 9.62470988,11.2006927 9.4517216,11.4214019 C8.71145107,12.3567316 7.53572729,12.9508569 6.56460689,12.9508569 C5.65552367,12.9508569 5.07810072,12.3823816 5.6942969,11.0599161 C6.58548479,9.15048339 8.79496265,8.6177988 10.8517336,8.61541275 L9.89075392,10.6751663 Z" id="Shape"></path>
            </g>
            <g id="Group" transform="translate(43.581117, 5.428845)" fill="#EF3829">
                <path d="M14.3842736,0.223095227 L10.0977433,9.41891348 C9.89552601,9.85138417 9.63306103,10.2504502 9.37178908,10.5284245 C8.8080859,11.1798148 7.82443876,11.900997 6.76622771,11.900997 C5.29284479,11.900997 5.30000293,10.6065675 6.27410589,8.5175849 L10.1436747,0.223095227 L5.55292372,0.223095227 L1.39464343,9.13974619 C-0.633495004,13.4948752 0.271412643,15.4806613 3.37148189,15.4806613 C5.66685738,15.4806613 7.61267725,14.2637783 8.72159176,13.3057811 L8.80868241,13.3057811 L8.15848509,15.1830022 L12.2422015,15.1830022 C12.4957188,14.2679539 13.0194557,12.9550325 13.6487751,11.6474797 C14.2810771,10.34112 18.973235,0.222498716 18.973235,0.222498716 L14.3842736,0.222498716 L14.3842736,0.223095227 Z" id="Path"></path>
            </g>
            <g id="Group" transform="translate(70.424126, 4.832334)" fill="#EF3829">
                <path d="M6.36775816,12.8768895 C4.5752417,12.8768895 4.69394744,10.8433825 5.88398749,8.29210363 C6.88851253,6.13929433 8.6601511,3.7258096 10.6429547,3.7258096 C12.507649,3.7258096 12.0465458,6.13153969 11.0450033,8.27898038 C9.88836787,10.7580814 8.06542933,12.8768895 6.40056628,12.8768895 L6.36775816,12.8768895 Z M4.85023341,16.0777692 C8.22648738,16.0777692 13.0671766,13.9917691 15.7705658,8.19427577 C17.9156205,3.59457711 16.5788386,0.521350879 12.2618863,0.521350879 C8.05767468,0.521350879 3.58085735,3.32376098 1.21867259,8.38277334 C-1.03852618,13.2240591 0.609634552,16.0777692 4.81682877,16.0777692 L4.85023341,16.0777692 Z" id="Shape"></path>
            </g>
            <g id="Group" transform="translate(118.741541, 4.832334)" fill="#EF3829">
                <path d="M6.63738127,12.8768895 C4.84367178,12.8768895 4.96357055,10.8433825 6.15480363,8.29210363 C7.15813564,6.13929433 8.93096723,3.7258096 10.9119813,3.7258096 C12.7820442,3.7258096 12.3161689,6.13153969 11.3140299,8.27898038 C10.1585875,10.7580814 8.33624546,12.8768895 6.67018939,12.8768895 L6.63738127,12.8768895 Z M5.11985652,16.0777692 C8.50028607,16.0777692 13.3367997,13.9917691 16.041382,8.19427577 C18.1846471,3.59457711 16.8490583,0.521350879 12.5327025,0.521350879 C8.32908733,0.521350879 3.84928744,3.32376098 1.48948872,8.38277334 C-0.765920513,13.2240591 0.880450683,16.0777692 5.0876449,16.0777692 L5.11985652,16.0777692 Z" id="Shape"></path>
            </g>
            <g id="Group" transform="translate(133.057813, 4.832334)" fill="#EF3829">
                <path d="M16.3676736,0.602476416 C16.0867168,0.540439241 15.8677972,0.52194739 15.4269753,0.52194739 C14.0711051,0.52194739 12.0280539,1.40836319 10.3709455,3.33927028 L10.2540293,3.33927028 L11.2340974,0.819606531 L7.28459603,0.819606531 C6.73580564,2.15579185 6.0796432,3.67689567 5.19919252,5.56545046 L0.435453251,15.78011 L2.87339495,15.78011 C4.28056511,15.78011 5.37039126,15.041629 5.99792115,13.6976891 L8.56113022,8.19964437 C8.78541847,7.71647022 9.0401288,7.27922743 9.26739961,6.966059 C10.3464886,5.47716679 11.9200854,4.70707069 13.3129393,4.70707069 C13.7859727,4.70707069 14.1122644,4.73749277 14.4129061,4.80191599 L16.3676736,0.602476416 Z" id="Path"></path>
            </g>
            <g id="Group" transform="translate(109.197361, 1.253266)" fill="#EF3829">
                <path d="M6.5490976,16.041382 C5.36382964,16.041382 5.07929375,15.38343 5.90784795,13.6111949 L8.71980223,7.57629006 L11.4738949,7.57629006 L12.9532429,4.39927086 L10.2009398,4.39927086 L12.0554934,0.418750935 L9.68495752,0.418750935 C8.27599782,0.418750935 7.18915423,1.16140751 6.55864178,2.50415445 L5.67520854,4.39927086 L3.6941945,4.39927086 L2.21544298,7.57629006 L4.19287795,7.57629006 L1.14828426,14.1068958 C0.113337148,16.3289004 -0.0399662573,17.6334706 0.454541613,18.4751481 C0.882240217,19.2082605 1.89690594,19.6222393 3.31540982,19.6222393 C4.56271496,19.6222393 5.67938412,19.471322 6.37551281,19.2816314 L7.94732009,15.9113425 C7.50232266,16.0091704 7.19213678,16.041382 6.5490976,16.041382" id="Path"></path>
            </g>
            <g id="Group" transform="translate(84.740397, 1.253266)" fill="#EF3829">
                <path d="M11.1553579,0.417557912 C9.74520516,0.417557912 8.65776505,1.160811 8.02844563,2.50355794 L0.168812699,19.3591778 L2.60556137,19.3591778 C4.01452107,19.3591778 5.10255769,18.6195038 5.72949107,17.2767569 L13.5909135,0.417557912 L11.1553579,0.417557912 Z" id="Path"></path>
            </g>
            <g id="Group" transform="translate(58.493900, 4.832334)" fill="#EF3829">
                <path d="M16.0574878,0.602476416 C15.7759344,0.540439241 15.5558218,0.52194739 15.1179825,0.52194739 C13.7615158,0.52194739 11.7184646,1.40836319 10.0619527,3.33927028 L9.94324691,3.33927028 L10.9251045,0.819606531 L6.97262062,0.819606531 C6.42323371,2.15579185 5.77124686,3.67689567 4.88841013,5.56545046 L0.125267374,15.78011 L2.56261256,15.78011 C3.97037923,15.78011 5.05901236,15.041629 5.68594574,13.6976891 L8.24975132,8.19964437 C8.47463608,7.71647022 8.73113594,7.27922743 8.95721373,6.966059 C10.0363027,5.47716679 11.6098995,4.70707069 13.0015604,4.70707069 C13.4751903,4.70707069 13.8008855,4.73749277 14.1009307,4.80191599 L16.0574878,0.602476416 Z" id="Path"></path>
            </g>
            <g id="Group" transform="translate(26.282289, 0.060244)" fill="#EF3829">
                <path d="M20.6404841,6.52464063 C21.8555776,3.57668177 21.8609462,0.238604521 15.3351126,0.238604521 L9.50361808,0.238604521 L0.0286325426,20.5522004 L2.42839752,20.5522004 C3.83795372,20.5522004 4.92539383,19.8137194 5.55530977,18.4697795 L8.08153514,13.0510708 C8.4334768,13.0904405 8.87191261,13.1137045 9.36045537,13.1137045 C11.7369564,13.1137045 14.3908352,12.8745035 16.5889793,11.4381042 C18.3355644,10.2963816 19.7510858,8.681029 20.6404841,6.52464063 M10.8744011,9.68078194 C10.3572258,9.68078194 9.98738875,9.65871102 9.69509821,9.59249827 L12.5816164,3.41323768 C13.0146836,3.33986679 13.5252973,3.377447 14.2440934,3.377447 C16.4816073,3.377447 17.0274151,4.49769523 16.1368238,6.48467438 C15.2241615,8.51460234 13.2604463,9.68078194 10.8744011,9.68078194" id="Shape"></path>
            </g>
            <g id="Group" transform="translate(13.755552, 0.060244)" fill="#00529C">
                <path d="M17.7670892,0.23800801 L10.0166178,0.23800801 L0.544018308,20.5522004 L6.13869782,20.5522004 C7.54825403,20.5522004 8.63509762,19.8137194 9.26382054,18.4697795 C9.89313996,17.1258395 17.7670892,0.23800801 17.7670892,0.23800801" id="Path"></path>
            </g>
            <g id="Group" transform="translate(7.790439, 0.060244)" fill="#EF3829">
                <path d="M12.0650376,0.23800801 C10.6554814,0.23800801 9.56744479,0.980664582 8.93931839,2.32162199 L0.438435808,20.5522004 L4.00855596,20.5522004 L13.4823485,0.23800801 L12.0650376,0.23800801 Z" id="Path"></path>
            </g>
            <g id="Group" transform="translate(0.035792, 10.797447)" fill="#00529C">
                <path d="M9.99633642,0.583388054 L1.17870634,0.583388054 C0.672268239,0.583388054 0.262464973,0.995577365 0.262464973,1.50440151 C0.262464973,1.7573223 0.363275384,1.98876868 0.532088082,2.1534058 L6.48825344,8.11016768 L9.99633642,0.583388054 Z" id="Path"></path>
            </g>
        </g>
    </g>
</svg>