<?xml version="1.0" encoding="UTF-8"?>
<svg width="200px" height="145px" viewBox="0 0 200 145" version="1.1" xmlns="http://www.w3.org/2000/svg" xmlns:xlink="http://www.w3.org/1999/xlink">
    <title>ShipStation Partner Logo - Royal Mail</title>
    <g id="ShipStation-Partner-Logo---Royal-Mail" stroke="none" stroke-width="1" fill="none" fill-rule="evenodd">
        <g id="royal_mail" transform="translate(53.000000, 41.000000)">
            <g id="Group" transform="translate(31.043158, 0.000000)" fill="#FFFFFF">
                <rect id="Rectangle" x="0.0859656672" y="0.324759187" width="32.0460904" height="62.9364201"></rect>
            </g>
            <g id="Group" fill="#EC2926">
                <path d="M94.2565782,29.3620512 L63.5190763,29.3620512 L63.5190763,0 L30.8043641,0 L30.8043641,29.3620512 L0,29.3620512 L0,52.7208333 L30.8043641,52.7208333 L30.8043641,63.5859385 L63.5190763,63.5859385 L63.5190763,52.7208333 L94.2756816,52.7208333 L94.2565782,29.3620512 Z M31.4538824,0.649518374 L62.8504544,0.649518374 L62.8504544,29.3620512 L31.4538824,29.3620512 L31.4538824,0.649518374 Z M62.8504544,62.9364201 L31.4538824,62.9364201 L31.4538824,52.7208333 L62.8504544,52.7208333 L62.8504544,62.9364201 Z" id="Shape"></path>
            </g>
            <g id="Group" transform="translate(82.144971, 32.953506)" fill="#F9DD0C">
                <path d="M1.20829521,0.281776353 C1.2049521,0.281776353 1.20208658,0.281776353 1.19874347,0.281776353 C0.585521711,0.281776353 0.0811897968,0.786108267 0.0811897968,1.39933003 C0.0811897968,2.01255179 0.585521711,2.5168837 1.19874347,2.5168837 C1.81196523,2.5168837 2.31629714,2.01255179 2.31629714,1.39933003 C2.31629714,1.39789727 2.31629714,1.39598692 2.31629714,1.39455416 C2.31629714,0.786108267 1.8167411,0.284164289 1.20829521,0.281776353 Z M1.20829521,1.7431927 C1.20686245,1.7431927 1.2049521,1.7431927 1.20351934,1.7431927 C1.01487246,1.7431927 0.859656672,1.58797691 0.859656672,1.39933003 C0.859656672,1.21068315 1.01487246,1.05546736 1.20351934,1.05546736 C1.39216622,1.05546736 1.54738201,1.21068315 1.54738201,1.39933003 C1.54738201,1.58606656 1.39503174,1.74080476 1.20829521,1.7431927 Z" id="Shape"></path>
            </g>
            <g id="Group" transform="translate(14.805198, 35.819028)" fill="#F9DD0C">
                <path d="M8.85446372,1.91034816 C7.92603451,0.96472582 6.65469781,0.432693858 5.32987136,0.434599079 C2.58565623,0.470423234 0.347205778,2.73752891 0.347205778,5.48222163 C0.347205778,6.81039119 0.871596348,8.08650376 1.80527901,9.03117092 C2.73514098,9.97631567 4.00647768,10.5088252 5.3322593,10.5088252 C6.65804092,10.5088252 7.92937762,9.97631567 8.85923959,9.03117092 C10.795855,7.06876578 10.795855,3.86797744 8.85923959,1.90557229 L8.85446372,1.91034816 Z M8.24315231,8.41508364 C7.47375959,9.19450569 6.42259051,9.63340818 5.32748343,9.63340818 C4.23237635,9.63340818 3.18120727,9.19450569 2.41181455,8.41508364 C1.63525802,7.63327366 1.19874347,6.57494078 1.19874347,5.47314748 C1.19874347,3.19935558 3.05655705,1.32243851 5.32987136,1.29902711 C6.42688879,1.29664881 7.47996822,1.73793924 8.24792818,2.52165957 C9.84832235,4.14545551 9.84832235,6.79128771 8.24792818,8.41508364 L8.24315231,8.41508364 Z" id="Shape"></path>
            </g>
            <g id="Group" transform="translate(16.237959, 37.251789)" fill="#F9DD0C">
                <path d="M6.57637354,1.3229161 C5.86858954,0.604625192 4.9009982,0.199631383 3.89233437,0.199631383 C2.88367055,0.199631383 1.9160792,0.604625192 1.20829521,1.3229161 C-0.26458322,2.81585319 -0.26458322,5.25059192 1.20829521,6.743529 C1.91512403,7.46325267 2.88367055,7.86824648 3.89233437,7.86586905 C3.89328955,7.86586905 3.89424472,7.86586905 3.89567748,7.86586905 C5.99132941,7.86586905 7.7163738,6.14129174 7.7163738,4.04516223 C7.7163738,3.02217079 7.30517136,2.04072942 6.57637354,1.3229161 Z M3.89233437,7.00142818 C3.11291233,7.00238118 2.36548861,6.68860649 1.81960662,6.13221759 C0.680083945,4.97741213 0.680083945,3.09380884 1.81960662,1.93900338 C2.36692137,1.38356965 3.11482267,1.07027256 3.89472231,1.07027256 C4.67462195,1.07027256 5.42252325,1.38356965 5.969838,1.93900338 C6.51858551,2.4949147 6.82662915,3.24520394 6.82662915,4.02653633 C6.82662915,5.64030294 5.51135444,6.97420354 3.89711024,6.99665013 L3.89233437,7.00142818 Z" id="Shape"></path>
            </g>
            <g id="Group" transform="translate(26.267287, 36.296615)" fill="#F9DD0C">
                <path d="M7.259323,0.24356939 L7.259323,9.04549853 C7.26075577,9.91327418 6.9168931,10.7471412 6.30414892,11.3617957 C5.70000132,11.9764502 4.87329815,12.3231784 4.01173113,12.3231784 C3.15016411,12.3231784 2.32346095,11.9764502 1.71931334,11.3617957 C1.28709707,10.9238484 0.987172411,10.3722353 0.854880801,9.77143083 L0,9.77143083 C0.144231286,10.6057754 0.541106116,11.3761233 1.13665715,11.977883 C1.90175159,12.7544395 2.94766721,13.1919092 4.03799842,13.1919092 C5.12832963,13.1919092 6.17424525,12.7544395 6.93933969,11.977883 C7.70443413,11.1951178 8.129009,10.140128 8.11897968,9.04549853 L8.11897968,0.24356939 L7.259323,0.24356939 Z" id="Path"></path>
            </g>
            <g id="Group" transform="translate(25.789700, 36.296615)" fill="#F9DD0C">
                <path d="M4.49409404,9.22698161 C5.218116,9.22507126 5.92781034,9.02161918 6.54294244,8.63954955 L6.54294244,9.04549853 C6.5481959,10.1754695 5.62406498,11.1105849 4.49409404,11.1182263 C3.95489828,11.1148832 3.43910427,10.8966259 3.06133292,10.5116907 C2.85167221,10.3034628 2.68881503,10.0527296 2.58374589,9.7762067 L1.67633051,9.7762067 C1.80336866,10.2867472 2.06556395,10.7538274 2.4356939,11.127778 C2.97727761,11.6803462 3.72040304,11.9907778 4.49409404,11.9874614 C6.09926408,11.9769278 7.41262844,10.6506686 7.40739069,9.04549853 L7.40739069,6.41399394 C7.23830917,6.7803032 7.00715705,7.11461413 6.72442552,7.40259912 C6.13985898,8.00722431 5.33512482,8.35204215 4.49409404,8.3577732 C3.63300461,8.35968354 2.80630145,8.01534329 2.20167625,7.40259912 C1.58893208,6.7879446 1.24506941,5.95407762 1.24650217,5.08630197 L1.24650217,0.24356939 L0.386831375,0.24356939 L0.386831375,5.0815261 C0.38397998,6.17806595 0.817151425,7.23162296 1.59036484,8.00913466 C2.35402652,8.78664636 3.39946455,9.22411609 4.48931817,9.22220574 L4.49409404,9.22698161 Z" id="Path"></path>
            </g>
            <g id="Group" transform="translate(27.222461, 36.296615)" fill="#F9DD0C">
                <path d="M1.00293278,7.1638056 C1.54451649,7.7163738 2.28764192,8.02680538 3.06133292,8.02348899 C4.69229267,7.9594656 5.99371735,6.58926839 5.97461387,4.95735347 L5.97461387,0.24356939 L5.11018133,0.24356939 L5.11018133,4.95735347 C5.12498652,6.11454687 4.21661597,7.09312271 3.06133292,7.1638056 C2.52213716,7.1599849 2.00634315,6.94172762 1.62857181,6.55727006 C1.2417263,6.16755903 1.02537937,5.63982535 1.02681214,5.09107784 L1.02681214,0.24356939 L0.167155464,0.24356939 L0.167155464,5.0815261 C0.159036484,5.85856022 0.459916319,6.60789428 1.00293278,7.1638056 Z" id="Path"></path>
            </g>
            <g id="Group" transform="translate(48.236291, 33.431093)" fill="#F9DD0C">
                <rect id="Rectangle" x="0.047758704" y="0.0334310928" width="1" height="12.603522"></rect>
            </g>
            <g id="Group" transform="translate(46.803530, 33.431093)" fill="#F9DD0C">
                <rect id="Rectangle" x="0.286552224" y="0.0334310928" width="1" height="12.603522"></rect>
            </g>
            <g id="Group" transform="translate(83.100145, 36.296615)" fill="#F9DD0C">
                <rect id="Rectangle" x="0.410724854" y="0.234017649" width="1" height="9.53741318"></rect>
            </g>
            <g id="Group" transform="translate(82.144971, 36.296615)" fill="#F9DD0C">
                <rect id="Rectangle" x="0.176707205" y="0.234017649" width="1" height="9.53741318"></rect>
            </g>
            <g id="Group" transform="translate(87.398428, 33.431093)" fill="#F9DD0C">
                <rect id="Rectangle" x="0.0143276112" y="0.0334310928" width="1" height="12.603522"></rect>
            </g>
            <g id="Group" transform="translate(85.965667, 33.431093)" fill="#F9DD0C">
                <rect id="Rectangle" x="0.257897001" y="0.0334310928" width="1" height="12.603522"></rect>
            </g>
            <g id="Group" transform="translate(36.774202, 37.251789)" fill="#F9DD0C">
                <path d="M1.20351934,1.52827853 C-0.224465909,2.97536726 -0.224465909,5.33464723 1.20351934,6.78173596 C1.89219985,7.4842665 2.8373446,7.87732063 3.82069632,7.87063442 C5.84757571,7.85773957 7.5062355,6.18188664 7.4981462,4.15500725 L7.4981462,0.439376169 L3.82069632,0.439376169 C2.84355323,0.437947315 1.90652746,0.830523862 1.22262282,1.52827853 L1.20351934,1.52827853 Z M6.61935637,4.15500725 C6.61935637,4.16599175 6.61935637,4.17745384 6.61935637,4.18843834 C6.61935637,5.73677552 5.34993002,7.01288809 3.80159284,7.02053857 C3.05321395,7.02243983 2.33492304,6.72299276 1.81005488,6.18952804 C0.718768495,5.0815261 0.718768495,3.27624709 1.81005488,2.16824516 C2.33492304,1.61949765 3.06181051,1.30906608 3.82069632,1.30858849 L6.63845985,1.30858849 L6.63845985,4.17411073 L6.61935637,4.15500725 Z" id="Shape"></path>
            </g>
            <g id="Group" transform="translate(35.341441, 36.296615)" fill="#F9DD0C">
                <path d="M5.25345744,0.191034816 C2.56320964,0.210615885 0.360100628,2.42900768 0.360100628,5.11973307 C0.360100628,6.42211292 0.876849805,7.67339097 1.79572727,8.59656672 C3.45677499,10.2867472 6.13030724,10.5131235 8.05211749,9.12668833 L8.05211749,9.7762067 L8.91177416,9.7762067 L8.91177416,6.71964965 C8.71357554,7.18768495 8.42845608,7.61369259 8.07122097,7.97570356 C7.32379725,8.73315661 6.30319375,9.16011942 5.23912983,9.16011942 C4.1750659,9.16011942 3.1544624,8.73315661 2.40703868,7.97570356 C1.65054081,7.21634017 1.22548834,6.18666251 1.22548834,5.1149572 C1.22548834,2.90086368 3.03936392,1.07504843 5.25345744,1.06024323 L9.2604127,1.06024323 L9.2604127,9.77143083 L10.1248452,9.77143083 L10.1248452,0.191034816 L5.25345744,0.191034816 Z" id="Path"></path>
            </g>
            <g id="Group" transform="translate(71.638056, 37.251789)" fill="#F9DD0C">
                <path d="M1.49484743,1.52827853 C0.0668621856,2.97536726 0.0668621856,5.33464723 1.49484743,6.78173596 C2.17875208,7.47949063 3.11577785,7.87206718 4.09292093,7.87063832 C6.11980033,7.85773957 7.77846012,6.18188664 7.77037082,4.15500725 L7.77037082,0.439376169 L4.09292093,0.439376169 C3.11577785,0.437947315 2.17875208,0.830523862 1.49484743,1.52827853 Z M6.91068447,4.15500725 C6.91068447,4.16599175 6.91068447,4.17745384 6.91068447,4.18843834 C6.91068447,5.73677552 5.64125811,7.01288809 4.09292093,7.02054364 C3.34454204,7.02291742 2.62577354,6.72299276 2.10138297,6.18952804 C1.01009659,5.0815261 1.01009659,3.27624709 2.10138297,2.16824516 C2.62577354,1.63478044 3.34454204,1.33485578 4.09292093,1.33722956 L6.91068447,1.33722956 L6.91068447,4.20276595 L6.91068447,4.15500725 Z" id="Shape"></path>
            </g>
            <g id="Group" transform="translate(70.682882, 36.296615)" fill="#F9DD0C">
                <path d="M5.04809501,0.191034816 C2.36501102,0.220645212 0.173841682,2.43617149 0.173841682,5.11925548 C0.173841682,6.42211292 0.690590859,7.67339097 1.60946832,8.59656672 C3.27051605,10.2867472 5.9440483,10.5131235 7.86585854,9.12668833 L7.86585854,9.7762067 L8.72551522,9.7762067 L8.72551522,6.71964965 C8.52540625,7.18816254 8.23885402,7.61417017 7.88018616,7.97570356 C7.13276244,8.73315661 6.11215893,9.16011942 5.04809501,9.16011942 C3.98403109,9.16011942 2.96342758,8.73315661 2.21600386,7.97570356 C1.46237152,7.21634017 1.0392294,6.18905045 1.0392294,5.11925548 C1.0392294,2.91232577 2.8411653,1.08985362 5.04809501,1.0650191 L9.07415376,1.0650191 L9.07415376,9.77143083 L9.93381043,9.77143083 L9.93381043,0.191034816 L5.04809501,0.191034816 Z" id="Path"></path>
            </g>
            <g id="Group" transform="translate(5.731044, 33.431093)" fill="#F9DD0C">
                <path d="M6.26116609,8.11897968 C6.73732037,7.91743795 7.16905905,7.62324433 7.53154762,7.25454713 C8.3577732,6.41017325 8.82676367,5.27876955 8.84013611,4.0976968 C8.83440506,3.00545524 8.40409914,1.9566741 7.64139264,1.17486412 C6.88776029,0.407859332 5.85091882,-0.0171931334 4.7758704,0 L0.405948984,0 L0.405948984,12.6178496 L1.26560566,12.6178496 L1.26560566,0.873984283 L4.7758704,0.873984283 C5.61690117,0.859179085 6.42832156,1.18919173 7.02052948,1.78617553 C7.62563226,2.40942662 7.96806217,3.24329359 7.97570356,4.11202441 C7.95851043,5.06194503 7.58121667,5.97031558 6.92023621,6.65278746 C6.3638473,7.2263695 5.59875287,7.55208386 4.79974975,7.55542697 L8.33866971,12.6082978 L9.39413707,12.6082978 L6.26116609,8.11897968 Z" id="Path"></path>
            </g>
            <g id="Group" transform="translate(7.163806, 34.386267)" fill="#F9DD0C">
                <path d="M2.73179787,6.2754937 L3.34310928,6.2754937 C5.22002634,6.2754937 6.20863152,4.46543882 6.20863152,3.1616262 C6.20051254,2.37933863 5.89103614,1.62952698 5.34419897,1.06979497 C4.81598771,0.537763007 4.09292093,0.242614216 3.34310928,0.253121131 L0.162379594,0.253121131 L0.162379594,11.6626755 L1.02681214,11.6626755 L1.02681214,1.12232954 L3.34310928,1.12232954 C3.86845502,1.10895711 4.37708522,1.31288677 4.74721518,1.68588225 C5.1331055,2.08036915 5.35231795,2.60953559 5.35852659,3.1616262 C5.35852659,4.11680028 4.66124951,5.40628529 3.34310928,5.40628529 L1.06979497,5.40628529 L5.44926812,11.6626755 L6.50473548,11.6626755 L2.73179787,6.2754937 Z" id="Path"></path>
            </g>
            <g id="Group" transform="translate(66.862186, 33.431093)" fill="#F9DD0C">
                <polygon id="Path" points="1.24650217 0.0382069632 0.372517891 0.0382069632 2.5980735 12.6560566 3.47205778 12.6560566"></polygon>
            </g>
            <g id="Group" transform="translate(57.788032, 33.431093)" fill="#F9DD0C">
                <polygon id="Path" points="4.62781842 7.55542697 1.17963999 0.0382069632 0.234017649 0.0382069632 4.62781842 9.62815472 9.02161918 0.0382069632 8.07122097 0.0382069632"></polygon>
            </g>
            <g id="Group" transform="translate(54.444923, 33.431093)" fill="#F9DD0C">
                <polygon id="Path" points="0.0525345744 12.6560566 0.926518857 12.6560566 3.15207446 0.0382069632 2.27331431 0.0382069632"></polygon>
            </g>
            <g id="Group" transform="translate(55.400097, 33.431093)" fill="#F9DD0C">
                <polygon id="Path" points="7.01575361 10.4209492 2.45479738 0.468035299 0.310431576 12.6560566 1.18441586 12.6560566 2.82253941 3.34310928 7.01575361 12.493677 11.2089678 3.34310928 12.8470914 12.6560566 13.7210757 12.6560566 11.5767098 0.468035299"></polygon>
            </g>
            <g id="Group" transform="translate(45.370769, 3.820696)" fill="#EC2926">
                <path d="M1.29903675,2.08705536 C1.45090943,2.3177299 1.39837485,2.63007183 1.17963999,2.79866005 C1.1165985,2.86504465 1.04782597,2.92569821 0.974277561,2.98014313 L2.5646424,2.98014313 C2.49825781,2.92760855 2.43617149,2.87029811 2.37838346,2.80821179 C2.15964859,2.63962357 2.10711402,2.32728164 2.2589867,2.0966071 C2.37360759,1.98198622 2.68403916,2.0966071 2.96103965,2.39271107 C3.02599148,2.45766291 3.08521228,2.5278682 3.13774685,2.60284937 L3.13774685,0.630414892 C3.08712263,0.699665013 3.03124494,0.765094438 2.97059139,0.826225579 C2.6935909,1.10322606 2.38315933,1.23695043 2.26853844,1.12232954 C2.15391755,1.00770865 2.26853844,0.687725337 2.5646424,0.410724854 C2.62625113,0.346250604 2.6935909,0.287029811 2.76522896,0.234017649 L0.821449708,0.234017649 C0.889267068,0.284641876 0.953263731,0.340519559 1.01248452,0.401173113 C1.28948501,0.678173596 1.41843351,0.998156913 1.30858849,1.1127778 C1.19874347,1.22739869 0.883536024,1.1127778 0.606535541,0.816673838 C0.54206129,0.753154762 0.482840497,0.684382228 0.429828336,0.611311411 L0.429828336,2.57897001 C0.480452562,2.50971989 0.536330246,2.44429047 0.5969838,2.38315933 C0.869208412,2.10615885 1.18441586,1.97243447 1.29903675,2.08705536 Z" id="Path"></path>
            </g>
            <g id="Group" transform="translate(45.370769, 8.596567)" fill="#EC2926">
                <path d="M1.76229618,1.66677877 C2.53025614,1.65674944 3.19266936,1.10656917 3.34310928,0.353414409 L0.167155464,0.353414409 C0.318550556,1.11182263 0.989082759,1.66343566 1.76229618,1.66677877 Z" id="Path"></path>
            </g>
            <g id="Group" transform="translate(47.281117, 6.686219)" fill="#EC2926">
                <path d="M0.162379594,0.315207446 L0.162379594,1.59991658 L1.43276112,1.59991658 C1.30429021,0.957562015 0.803301401,0.450842166 0.162379594,0.315207446 Z" id="Path"></path>
            </g>
            <g id="Group" transform="translate(45.370769, 6.686219)" fill="#EC2926">
                <path d="M1.43276112,0.319983317 C0.794704834,0.455618036 0.295626378,0.95994995 0.167155464,1.59991658 L1.43276112,1.59991658 L1.43276112,0.319983317 Z" id="Path"></path>
            </g>
            <g id="Group" transform="translate(46.325943, 10.029328)" fill="#EC2926">
                <ellipse id="Oval" cx="0.807122097" cy="0.940846468" rx="1" ry="1"></ellipse>
            </g>
            <g id="Group" transform="translate(46.325943, 11.462089)" fill="#EC2926">
                <ellipse id="Oval" cx="0.807122097" cy="0.749811652" rx="1" ry="1"></ellipse>
            </g>
            <g id="Group" transform="translate(46.325943, 12.894850)" fill="#EC2926">
                <ellipse id="Oval" cx="0.807122097" cy="0.563552707" rx="1" ry="1"></ellipse>
            </g>
            <g id="Group" transform="translate(46.325943, 13.850024)" fill="#EC2926">
                <ellipse id="Oval" cx="0.807122097" cy="0.854880801" rx="1" ry="1"></ellipse>
            </g>
            <g id="Group" transform="translate(46.325943, 16.715546)" fill="#EC2926">
                <ellipse id="Oval" cx="0.807122097" cy="0.759363393" rx="1" ry="1"></ellipse>
            </g>
            <g id="Group" transform="translate(55.671408, 18.579326) rotate(-71.559973) translate(-55.671408, -18.579326) translate(54.671408, 17.579326)" fill="#EC2926">
                <ellipse id="Oval" cx="1.05068791" cy="0.797567638" rx="1" ry="1"></ellipse>
            </g>
            <g id="Group" transform="translate(38.206963, 17.670720)" fill="#EC2926">
                <path d="M0.759363393,1.38977829 C0.950398209,1.3229161 1.01726039,1.00770865 0.907415376,0.682949467 C0.797570356,0.35819028 0.558776837,0.148051982 0.367742021,0.205362427 C0.176707205,0.262672872 0.109845019,0.587432059 0.219690038,0.912191246 C0.329535057,1.23695043 0.568328577,1.43276112 0.759363393,1.38977829 Z" id="Path"></path>
            </g>
            <g id="Group" transform="translate(48.713878, 8.596567)" fill="#EC2926">
                <ellipse id="Oval" cx="0.96472582" cy="1.10800193" rx="1" ry="1"></ellipse>
            </g>
            <g id="Group" transform="translate(50.624226, 8.118980)" fill="#EC2926">
                <ellipse id="Oval" cx="0.735484041" cy="0.854880801" rx="1" ry="1"></ellipse>
            </g>
            <g id="Group" transform="translate(52.056987, 7.163806)" fill="#EC2926">
                <ellipse id="Oval" cx="1.03158801" cy="1.18441586" rx="1" ry="1"></ellipse>
            </g>
            <g id="Group" transform="translate(53.967335, 7.163806)" fill="#EC2926">
                <ellipse id="Oval" cx="0.940846468" cy="1.12232954" rx="1" ry="1"></ellipse>
            </g>
            <g id="Group" transform="translate(55.400097, 8.118980)" fill="#EC2926">
                <ellipse id="Oval" cx="1.17486412" cy="0.883536024" rx="1" ry="1"></ellipse>
            </g>
            <g id="Group" transform="translate(56.832858, 9.551741)" fill="#EC2926">
                <ellipse id="Oval" cx="0.912191246" cy="0.888311894" rx="1" ry="1"></ellipse>
            </g>
            <g id="Group" transform="translate(57.310445, 11.462089)" fill="#EC2926">
                <ellipse id="Oval" cx="0.859656672" cy="0.754587523" rx="1" ry="1"></ellipse>
            </g>
            <g id="Group" transform="translate(57.310445, 12.894850)" fill="#EC2926">
                <ellipse id="Oval" cx="0.764139264" cy="1.14143303" rx="1" ry="1"></ellipse>
            </g>
            <g id="Group" transform="translate(56.832858, 14.805198)" fill="#EC2926">
                <ellipse id="Oval" cx="0.764139264" cy="0.974277561" rx="1" ry="1"></ellipse>
            </g>
            <g id="Group" transform="translate(43.460421, 8.596567)" fill="#EC2926">
                <ellipse id="Oval" cx="1.13188128" cy="1.10800193" rx="1" ry="1"></ellipse>
            </g>
            <g id="Group" transform="translate(42.027659, 8.118980)" fill="#EC2926">
                <ellipse id="Oval" cx="0.883536024" cy="0.854880801" rx="1" ry="1"></ellipse>
            </g>
            <g id="Group" transform="translate(40.117311, 7.163806)" fill="#EC2926">
                <ellipse id="Oval" cx="1.0650191" cy="1.18441586" rx="1" ry="1"></ellipse>
            </g>
            <g id="Group" transform="translate(38.206963, 7.163806)" fill="#EC2926">
                <ellipse id="Oval" cx="1.15576064" cy="1.12232954" rx="1" ry="1"></ellipse>
            </g>
            <g id="Group" transform="translate(36.774202, 8.118980)" fill="#EC2926">
                <ellipse id="Oval" cx="0.921742987" cy="0.883536024" rx="1" ry="1"></ellipse>
            </g>
            <g id="Group" transform="translate(35.341441, 9.551741)" fill="#EC2926">
                <ellipse id="Oval" cx="1.18441586" cy="0.888311894" rx="1" ry="1"></ellipse>
            </g>
            <g id="Group" transform="translate(35.341441, 11.462089)" fill="#EC2926">
                <ellipse id="Oval" cx="0.759363393" cy="0.754587523" rx="1" ry="1"></ellipse>
            </g>
            <g id="Group" transform="translate(35.341441, 12.894850)" fill="#EC2926">
                <ellipse id="Oval" cx="0.854880801" cy="1.14143303" rx="1" ry="1"></ellipse>
            </g>
            <g id="Group" transform="translate(35.819028, 14.805198)" fill="#EC2926">
                <ellipse id="Oval" cx="0.854880801" cy="0.974277561" rx="1" ry="1"></ellipse>
            </g>
            <g id="Group" transform="translate(39.162137, 19.103482)" fill="#EC2926">
                <path d="M3.70129956,0.12417263 C3.62488563,-0.0047758704 3.52936822,0 3.45773017,0.12417263 C2.99065004,0.795660008 2.24752461,1.22501076 1.43276112,1.29426088 C0.920310226,1.31384195 0.420754182,1.12615024 0.047758704,0.773691004 L0.186258946,2.13481407 L15.6935101,2.13481407 L15.8320104,0.773691004 C15.4590149,1.12615024 14.9594588,1.31384195 14.447008,1.29426088 C13.6293789,1.22501076 12.8843432,0.79374966 12.417263,0.11939676 C12.345625,0.0047758704 12.2501076,-0.0047758704 12.1736936,0.11939676 C11.6387962,0.84532906 11.165985,1.37545067 9.87172411,1.37545067 C9.08083997,1.41079212 8.3319835,1.00579831 7.92794486,0.324759187 C7.52342864,1.00484313 6.77504975,1.40935935 5.98416561,1.37545067 C4.70900821,1.38022654 4.23142117,0.850104931 3.70129956,0.12417263 Z" id="Path"></path>
            </g>
            <g id="Group" transform="translate(38.684550, 22.924178)" fill="#EC2926">
                <path d="M15.8988726,0.191034816 L0.95517408,0.191034816 C0.431261097,0.191034816 0,0.622295913 0,1.1462089 C0,1.67012188 0.431261097,2.10138297 0.95517408,2.10138297 L15.9084243,2.10138297 C16.4323373,2.10138297 16.8635984,1.67012188 16.8635984,1.1462089 C16.8635984,0.622295913 16.4323373,0.191034816 15.9084243,0.191034816 L15.8988726,0.191034816 Z" id="Path"></path>
            </g>
            <g id="Group" transform="translate(38.684550, 21.491417)" fill="#EC2926">
                <polygon id="Path" points="0.673397726 1.23695043 2.0010897 1.23695043 2.0010897 0.148051982 0.673397726 0.148051982 0.210138297 0.687725337"></polygon>
            </g>
            <g id="Group" transform="translate(41.550072, 21.491417)" fill="#EC2926">
                <ellipse id="Oval" cx="1.51872679" cy="0.697277078" rx="1.17008825" ry="1"></ellipse>
            </g>
            <g id="Group" transform="translate(53.489748, 21.491417)" fill="#EC2926">
                <polygon id="Path" points="0.0429828336 0.148051982 0.0429828336 1.23695043 1.37545067 1.23695043 1.83393423 0.687725337 1.37545067 0.148051982"></polygon>
            </g>
            <g id="Group" transform="translate(49.669052, 21.491417)" fill="#EC2926">
                <ellipse id="Oval" cx="1.48051982" cy="0.697277078" rx="1.17008825" ry="1"></ellipse>
            </g>
            <g id="Group" transform="translate(45.370769, 21.491417)" fill="#EC2926">
                <rect id="Rectangle" x="0.267448742" y="0.152827853" width="2.94193616" height="1.08889845"></rect>
            </g>
            <g id="Group" transform="translate(36.774202, 9.074154)" fill="#EC2926">
                <path d="M17.4510304,0.0573104448 C16.4194424,0.0573104448 15.9466313,0.315207446 15.0010089,0.687725337 C14.0553866,1.06024323 13.4631787,1.54260614 11.8537103,1.78139966 L11.8155034,1.78139966 L11.8155034,1.2751574 L11.1564332,1.00293278 L11.1564332,6.28026957 L9.5517408,6.28026957 L9.5517408,0.998156913 L8.89267068,1.27038153 L8.89267068,1.7909514 C7.259323,1.55693375 6.60980463,1.04113975 5.71671687,0.692501208 C4.8236291,0.343862669 4.28395575,0.047758704 3.26191948,0.0620863152 C2.23988322,0.0764139264 0.11939676,0.606535541 0.248345261,3.82069632 C0.261717698,5.02469325 0.603670018,6.2019453 1.23695043,7.22589191 L2.3879352,6.86292576 L2.23510735,7.30708171 C2.02019318,7.94704834 1.90079642,8.39120429 2.08705536,8.49627344 C2.4356939,8.69685999 2.69836677,8.05211749 2.76045309,7.87541029 C2.98014313,8.52015279 3.43385082,10.0293278 3.43385082,10.0293278 C3.1138675,9.9051552 2.6935909,9.63293059 2.5646424,9.97201739 C2.4356939,10.3111042 2.77955657,10.5116907 3.23804013,10.6740703 C4.09339852,10.9596674 5.03615533,10.5432115 5.40150942,9.71889626 L6.49040787,9.63293059 C7.0348571,10.4878114 7.56975458,10.8173465 8.34344558,10.8173465 C9.11713659,10.8173465 9.93381043,10.0770865 9.87172411,9.41324055 C9.80486193,8.65387716 9.0502744,8.75894631 8.52015279,9.66636168 L8.52015279,7.1638056 L8.62999781,7.29752997 L8.7446187,7.41692673 C9.11236072,7.76556527 9.53263731,7.93272073 9.69979278,7.78944462 C9.86694824,7.64616851 9.76187909,7.51244414 9.63770646,7.31185758 C9.54648734,7.1638056 9.43568714,7.02864846 9.30817141,6.91068447 C9.22554885,6.82806191 9.13624007,6.75308074 9.04072266,6.68621856 L11.7008825,6.68621856 C11.4639993,6.85480678 11.2610248,7.06733301 11.1038987,7.31185758 C10.979726,7.52677175 10.946295,7.71303069 11.0418124,7.78944462 C11.1373298,7.86585854 11.6149168,7.76556527 11.9969864,7.41692673 L12.1116073,7.29752997 L12.2214523,7.1638056 L12.2214523,9.65203407 C11.6913307,8.7446187 10.9367432,8.63954955 10.869881,9.39891294 C10.8077947,10.0627589 11.6244685,10.8030188 12.3981596,10.8030188 C13.1718506,10.8030188 13.706748,10.4734838 14.2511973,9.61860298 L15.3400957,9.70456865 C15.7054498,10.5288839 16.6482066,10.9453398 17.503565,10.6597427 C17.981152,10.4973631 18.2820319,10.2490179 18.1769627,9.95768978 C18.0718936,9.66636168 17.6277376,9.89560346 17.3077543,10.0150002 C17.3077543,10.0150002 17.761462,8.50582518 17.981152,7.86108267 C18.0384625,8.03778988 18.3059112,8.68253238 18.6545498,8.48194583 C18.8408087,8.37687668 18.721412,7.93272073 18.5064978,7.2927541 L18.3536699,6.84859815 L19.5189823,7.20678843 C20.1365024,6.18475216 20.466515,5.01466392 20.4741564,3.82069632 C20.598329,0.606535541 18.4157563,0.071638056 17.4510304,0.0573104448 Z M7.38349563,8.73506696 C7.27556096,8.50152689 7.0272157,8.36398183 6.77218422,8.39598016 C6.52909242,8.460932 6.36289213,8.6892186 6.37578698,8.94042938 L5.28688853,9.02639505 C5.20092286,8.69685999 5.07197436,8.61089433 4.90959477,8.57268736 C4.74721518,8.5344804 4.57528384,8.57268736 4.43200773,8.9213259 C3.65831672,8.28613514 3.87323089,7.45513369 4.08814506,7.30708171 C4.23715222,7.22732467 4.41672494,7.22732467 4.5657321,7.30708171 C4.78446696,7.42600088 4.97597937,7.58838047 5.12928481,7.78466875 C5.0409312,7.62228915 4.96308452,7.45513369 4.89526716,7.28320236 C4.47976643,6.227735 4.66602538,5.33464723 5.39673355,4.74721518 C6.30414892,5.58776837 6.485632,6.04147605 6.2754937,7.28320236 C6.2754937,7.4217026 6.22295913,7.56497871 6.19430391,7.72258243 C6.2683299,7.56115801 6.36862318,7.41262844 6.49040787,7.28320236 C6.63272881,7.11365896 6.84238952,7.01432085 7.06351232,7.01097774 C7.2225488,7.02626053 7.3591387,7.13276244 7.41215086,7.28320236 C7.56927699,7.75601353 7.55924767,8.26894201 7.38349563,8.73506696 Z M8.90222242,3.21416078 C7.8453223,3.24711428 6.79749634,3.42382149 5.78835492,3.73950652 C4.83174808,3.44388014 3.80398077,3.47205778 2.86552224,3.82069632 C2.34017649,4.07859332 1.98676209,5.56388901 1.91034816,6.05580366 C1.59418554,5.39912148 1.43085077,4.67892023 1.43276112,3.94964482 C1.40888177,3.34310928 1.67633051,1.3706748 3.6296615,1.38019197 C5.34419897,1.38019197 7.06828819,2.66015981 8.88311894,2.74612548 L8.90222242,3.21416078 Z M16.2952698,8.9213259 C16.1424419,8.57268736 15.9705106,8.5344804 15.8176828,8.57268736 C15.6648549,8.61089433 15.5311305,8.69685999 15.440389,9.02639505 L14.3276112,8.94042938 C14.3400285,8.68778584 14.1714402,8.45902165 13.9264381,8.39598016 C13.6714066,8.36398183 13.4230613,8.50152689 13.3151267,8.73506696 C13.1460609,8.27371788 13.1379419,7.76890838 13.2912473,7.30230584 C13.3442595,7.15186592 13.4808494,7.04536401 13.6398859,7.03008123 C13.8610087,7.03390192 14.0701918,7.13324003 14.2129903,7.30230584 C14.3352526,7.43125434 14.4355459,7.57978391 14.5090943,7.74168591 C14.4756632,7.58408219 14.447008,7.43603021 14.4279045,7.29752997 C14.2177662,6.05580366 14.4040251,5.60209598 15.3114405,4.76154279 C16.0421487,5.34897485 16.2284076,6.24206261 15.8129069,7.29752997 C15.7441344,7.46134232 15.6662877,7.62037881 15.5788892,7.77511701 C15.7312395,7.58169426 15.9194088,7.41979225 16.1328902,7.29752997 C16.2804646,7.21251947 16.4629028,7.21251947 16.6104772,7.29752997 C16.8540466,7.45513369 17.0689608,8.28613514 16.2952698,8.9213259 Z M19.2945164,3.96397243 C19.2964268,4.69324784 19.133092,5.41297151 18.8169294,6.07013128 C18.7357396,5.59254424 18.425308,4.09292093 17.8617553,3.83502393 C16.9189985,3.47778882 15.8835898,3.44388014 14.9198191,3.73950652 C13.9106777,3.42382149 12.8628517,3.24711428 11.8059516,3.21416078 L11.8059516,2.76045309 C13.6398859,2.68403916 15.3687509,1.4041059 17.0832884,1.39451933 C19.050947,1.38500242 19.3136199,3.34310928 19.2945164,3.96397243 Z" id="Shape"></path>
            </g>
        </g>
    </g>
</svg>