<?xml version="1.0" encoding="UTF-8"?>
<svg width="200px" height="145px" viewBox="0 0 200 145" version="1.1" xmlns="http://www.w3.org/2000/svg" xmlns:xlink="http://www.w3.org/1999/xlink">
    <title>ShipStation Partner Logo - Sendle</title>
    <g id="ShipStation-Partner-Logo---Sendle" stroke="none" stroke-width="1" fill="none" fill-rule="evenodd">
        <g id="sendle" transform="translate(32.000000, 57.000000)" fill-rule="nonzero">
            <g id="Group" transform="translate(120.272502, 7.517031)" fill="#FF6800">
                <polygon id="Path" points="8.2749987 0.288152869 0.0250567712 0.288152869 6.78412082 11.989665 0.0250567712 23.6911772 8.2749987 23.6911772 15.0340627 11.989665"></polygon>
            </g>
            <g id="Group" transform="translate(120.272502, 7.517031)" fill="#FF8E40">
                <polygon id="Path" points="15.0340627 11.989665 8.2749987 0.288152869 0.0250567712 0.288152869 6.78412082 11.989665"></polygon>
            </g>
            <g id="Group" transform="translate(90.830796, 0.000000)" fill="#33424F">
                <path d="M31.4274553,19.7322074 C31.4274553,12.7163114 26.2093827,6.84676274 19.0682029,6.84676274 C13.3427307,6.84676274 8.88262541,10.8683745 7.21008593,16.1365607 L7.21008593,2.23005264 C7.21071235,2.20875439 7.21133876,2.18682971 7.21133876,2.16553146 C7.21133876,0.976587659 6.23287185,-0.00187925784 5.04392805,-0.00187925784 C5.01385993,-0.00187925784 4.98441822,-0.00125283856 4.95497651,-7.11236625e-17 L0.519928003,-7.11236625e-17 L0.519928003,31.2082086 L4.95497651,31.2082086 C6.25166443,31.2082086 7.20382173,29.9052565 7.20382173,28.6085686 L7.20382173,22.5510941 C8.87636121,27.8192803 13.4680145,31.8596846 19.1872226,31.8596846 C24.4428804,31.8596846 28.5835118,28.4143786 30.6256387,23.9542733 L23.4844589,23.9542733 C22.35064,25.0692996 21.1353865,26.1404766 19.2436003,26.1404766 C16.5124123,26.1404766 14.2322461,24.5117865 13.7812242,21.7555416 L31.2583221,21.7555416 C31.3823531,21.0884051 31.4387309,20.4106194 31.4274553,19.7322074 Z M13.8877155,16.7191306 C14.562369,14.3644205 16.7310326,12.7294662 19.1809584,12.7294662 C21.6308842,12.7294662 23.7995478,14.3644205 24.4742013,16.7191306 L13.8877155,16.7191306 Z" id="Shape"></path>
            </g>
            <g id="Group" fill="#33424F">
                <path d="M81.8730001,2.23005264 L81.8730001,9.62180016 C79.6429474,7.68616458 77.6321415,6.84676274 74.9385386,6.84676274 C69.0314048,6.84676274 64.8406598,10.8370536 63.6629915,16.1365607 C63.6629915,13.4805429 63.1180068,10.6616562 60.9568603,8.87009702 C59.2304487,7.57842046 57.1363291,6.87181951 54.9808203,6.85302694 C52.1681977,6.85302694 50.0947499,7.80518424 48.6289288,10.0352369 L48.4222104,10.0352369 C48.4228369,10.0133122 48.4234633,9.99201395 48.4234633,9.97008928 C48.4234633,8.7980588 47.4587776,7.83399953 46.2873735,7.83399953 C46.2535469,7.83399953 46.2197202,7.83462595 46.1858936,7.83650521 L42.3083583,7.83650521 L42.3083583,16.6063751 C40.6358188,11.0437719 36.2822048,6.89687629 30.2059377,6.89687629 C23.359175,6.89687629 17.9155914,12.6536695 17.9155914,19.4252619 C17.9155914,19.6820938 17.9155914,19.9326615 17.9155914,20.1832292 C14.9902134,16.2242594 7.26646366,17.0072835 7.26646366,14.0505845 C7.26646366,12.9982001 8.30631967,12.6411411 9.2334202,12.6411411 C10.4549378,12.6411411 11.36951,12.8791804 11.4070951,14.5203989 L18.2726504,14.5203989 C17.8091002,9.50904469 13.9879425,6.87808371 9.3211189,6.87808371 C4.82969266,6.84676274 0.294417062,9.74081982 0.294417062,14.6143618 C0.294417062,17.8905347 3.06945448,19.6633012 5.8382277,20.6718363 C6.84676274,21.0476878 7.85529779,21.3671617 8.86383283,21.7054281 C10.1166714,22.2065635 11.9959292,22.7014348 11.9959292,24.3865026 C11.9959292,25.6080202 10.6115426,26.153005 9.55915823,26.153005 C8.17477162,26.153005 7.12238723,25.6393412 6.90940467,23.9730659 L0,23.9730659 C0.544984775,29.5481975 4.6229743,31.8784772 9.4965163,31.8784772 C14.0380561,31.8784772 18.5795959,29.2913656 18.9617116,24.4742013 C20.9518457,28.9029856 25.3449241,31.7926578 30.1996735,31.8659488 C35.4490671,31.8659488 39.5959628,28.4206428 41.5817119,23.9605375 L34.4530605,23.9605375 C33.3192416,25.0755638 32.1039882,26.1467408 30.2122019,26.1467408 C27.4810139,26.1467408 25.2008477,24.5180507 24.7498258,21.7618058 L42.2895657,21.7618058 L42.2895657,31.2082086 L48.992252,31.2082086 L48.992252,18.2789146 C48.992252,15.5038772 49.8253896,13.4053726 53.0639773,13.4053726 C56.302565,13.4053726 56.822493,15.6291611 56.822493,18.2350653 L56.822493,28.6085686 C56.822493,29.9052565 57.7495935,31.2082086 59.0462814,31.2082086 L63.5126509,31.2082086 L63.5126509,22.4383387 C64.6276772,27.7942235 68.9249135,31.8972698 74.9322744,31.8972698 C77.6133489,31.8972698 80.4134431,31.2708505 81.8980568,28.5960402 L81.8980568,28.783966 C81.9964046,30.1100956 83.0763515,31.1681178 84.4037339,31.2395296 L88.5694222,31.2395296 L88.5694222,-1.16996256e-14 L84.0654675,-1.16996256e-14 C84.0391579,-0.00125283856 84.0134747,-0.00125283856 83.9871651,-0.00125283856 C82.8257838,-0.00125283856 81.869868,0.954036565 81.869868,2.11604433 C81.869868,2.15362949 81.8711208,2.19184106 81.8730001,2.23005264 Z M24.8187319,16.7191306 C25.4933855,14.3644205 27.662049,12.7294662 30.1119748,12.7294662 C32.5619007,12.7294662 34.7305642,14.3644205 35.4052178,16.7191306 L24.8187319,16.7191306 Z M76.1162069,25.2133761 C72.6333157,25.2133761 70.2779792,22.6074719 70.2779792,19.2060152 C70.2779792,15.9686803 72.9415139,13.3051455 76.1788488,13.3051455 C79.4161836,13.3051455 82.0797184,15.9686803 82.0797184,19.2060152 C82.0822241,19.2755477 82.0834769,19.3457067 82.0834769,19.4152392 C82.0834769,22.5943171 79.46755,25.2096176 76.2890986,25.2096176 C76.231468,25.2096176 76.1738374,25.2089911 76.1162069,25.2071119 L76.1162069,25.2133761 Z" id="Shape"></path>
            </g>
        </g>
    </g>
</svg>