<?xml version="1.0" encoding="UTF-8"?> <svg xmlns="http://www.w3.org/2000/svg" id="Layer_1" data-name="Layer 1" viewBox="0 0 200 145"><defs><style>.cls-1{fill:#dc1928;}</style></defs><path class="cls-1" d="M24.73,72.5a16,16,0,0,0,10.32,15V57.53a16,16,0,0,0-10.32,15"></path><path class="cls-1" d="M40.72,56.51c-.44,0-.88,0-1.32,0v1.13h.08c6.1,0,11,4.69,11,10.38s-5,10.23-11,10.22V88.44c.44,0,.88,0,1.32,0a16,16,0,1,0,0-32"></path><path class="cls-1" d="M71.42,76.23H66.27l-.9,2.67H63.1l4.41-12.8h2.72l4.38,12.8H72.32Zm-.65-1.93-1.93-5.67L66.92,74.3Z"></path><path class="cls-1" d="M81.39,69.56h2.2V78.9h-2.2V77.82h-.07a3.07,3.07,0,0,1-2.65,1.31c-1.9,0-3.12-1.37-3.12-3.46V69.56h2.2v5.88a1.59,1.59,0,0,0,1.71,1.8,1.83,1.83,0,0,0,1.93-1.95Z"></path><path class="cls-1" d="M87.28,76.19c.14.83.7,1.34,1.87,1.34s1.7-.45,1.7-1.23c0-.63-.24-1-1.25-1.13L87.93,75c-1.91-.22-2.7-1.12-2.7-2.58,0-1.78,1.51-3.06,3.85-3.06s3.64,1.42,3.75,2.83H90.67a1.43,1.43,0,0,0-1.62-1.23c-1,0-1.66.47-1.66,1.19s.32.94,1.4,1.06l1.66.2C92.29,73.6,93,74.45,93,76c0,1.92-1.68,3.13-3.87,3.13-2.54,0-3.9-1.24-4.08-2.94Z"></path><path class="cls-1" d="M95.41,71.18H93.62V69.56h1.81V66.1h2.18v3.46h2.14v1.62H97.61V76c0,.84.43,1.19,1.26,1.19h.9V78.9H98.49c-2.07,0-3.08-.94-3.08-2.78Z"></path><path class="cls-1" d="M103.82,78.9h-2.2V69.56h2.2V71h.07a2.12,2.12,0,0,1,2-1.41H107v2h-1c-1.46,0-2.17.7-2.17,2.41Z"></path><path class="cls-1" d="M110.49,79.13a2.7,2.7,0,0,1-3-2.79c0-1.84,1.4-2.54,2.94-2.74l2-.25c.76-.08.94-.42.94-1,0-.79-.53-1.4-1.63-1.4a1.61,1.61,0,0,0-1.8,1.47H107.7c0-1.58,1.38-3.13,4-3.13,2.45,0,3.89,1.44,3.89,3.57v4.39a7,7,0,0,0,.2,1.61H113.5a8.67,8.67,0,0,1-.09-1.21h0A3.28,3.28,0,0,1,110.49,79.13Zm1.69-4.52-1,.21c-.92.2-1.49.58-1.49,1.43s.5,1.28,1.47,1.28a2,2,0,0,0,2.18-2V74.1A2.42,2.42,0,0,1,112.18,74.61Z"></path><path class="cls-1" d="M117.5,76.37V65.45h2.2V76.23c0,.58.25.94.9.94h.72V78.9h-1.15A2.39,2.39,0,0,1,117.5,76.37Z"></path><path class="cls-1" d="M125.25,66.64a1.35,1.35,0,1,1-1.35-1.33A1.33,1.33,0,0,1,125.25,66.64ZM125,69.56V78.9h-2.2V69.56Z"></path><path class="cls-1" d="M129.52,79.13a2.7,2.7,0,0,1-3-2.79c0-1.84,1.4-2.54,2.94-2.74l2-.25c.76-.08.94-.42.94-1,0-.79-.53-1.4-1.63-1.4a1.61,1.61,0,0,0-1.8,1.47h-2.23c0-1.58,1.38-3.13,4-3.13,2.45,0,3.89,1.44,3.89,3.57v4.39a7,7,0,0,0,.2,1.61h-2.27a8.67,8.67,0,0,1-.09-1.21h-.05A3.28,3.28,0,0,1,129.52,79.13Zm1.69-4.52-1,.21c-.92.2-1.5.58-1.5,1.43s.51,1.28,1.48,1.28a2,2,0,0,0,2.18-2V74.1A2.42,2.42,0,0,1,131.21,74.61Z"></path><path class="cls-1" d="M145.63,66.1c2.76,0,4.51,1.57,4.51,4.15s-1.77,4.18-4.51,4.18H142.4V78.9h-2.32V66.1Zm2.14,4.15c0-1.59-1-2.26-2.57-2.26h-2.8v4.55h2.8C146.8,72.54,147.77,71.91,147.77,70.25Z"></path><path class="cls-1" d="M155.09,69.35c2.7,0,4.51,1.92,4.51,4.9s-1.81,4.88-4.51,4.88-4.5-1.91-4.5-4.88S152.39,69.35,155.09,69.35Zm2.27,4.52c0-1.75-.86-2.78-2.27-2.78s-2.27,1-2.27,2.78v.76c0,1.74.87,2.75,2.27,2.75s2.27-1,2.27-2.75Z"></path><path class="cls-1" d="M162.79,76.19c.14.83.7,1.34,1.87,1.34s1.69-.45,1.69-1.23c0-.63-.23-1-1.24-1.13l-1.68-.2c-1.91-.22-2.7-1.12-2.7-2.58,0-1.78,1.52-3.06,3.86-3.06s3.64,1.42,3.75,2.83h-2.17c-.1-.76-.64-1.23-1.62-1.23s-1.66.47-1.66,1.19.33.94,1.41,1.06l1.66.2c1.84.22,2.56,1.07,2.56,2.62,0,1.92-1.68,3.13-3.88,3.13-2.54,0-3.89-1.24-4.07-2.94Z"></path><path class="cls-1" d="M170.91,71.18h-1.78V69.56h1.8V66.1h2.18v3.46h2.15v1.62h-2.15V76c0,.84.43,1.19,1.26,1.19h.9V78.9H174c-2.08,0-3.09-.94-3.09-2.78Z"></path></svg> 