<?xml version="1.0" encoding="UTF-8"?>
<svg width="200px" height="145px" viewBox="0 0 200 145" version="1.1" xmlns="http://www.w3.org/2000/svg" xmlns:xlink="http://www.w3.org/1999/xlink">
    <title>ShipStation Partner Logo - Canada Post</title>
    <defs>
        <polygon id="path-1" points="0 0 140.659341 0 140.659341 31.8837404 0 31.8837404"></polygon>
        <polygon id="path-3" points="0 0 140.659341 0 140.659341 31.8837404 0 31.8837404"></polygon>
        <polygon id="path-5" points="0 0 140.659341 0 140.659341 31.8837404 0 31.8837404"></polygon>
    </defs>
    <g id="ShipStation-Partner-Logo---Canada-Post" stroke="none" stroke-width="1" fill="none" fill-rule="evenodd">
        <g id="Canada_Post-Logo.wine" transform="translate(30.000000, 57.000000)">
            <g id="Clipped">
                <mask id="mask-2" fill="white">
                    <use xlink:href="#path-1"></use>
                </mask>
                <g id="a"></g>
                <path d="M140.663561,31.8837404 L140.663561,16.3272884 L0,16.3272884 L0,31.8837404 L140.663561,31.8837404 M140.663561,15.4912779 L140.663561,0 L0,0 L0,15.4912779 L140.663561,15.4912779 Z" id="Shape" fill="#004890" mask="url(#mask-2)"></path>
            </g>
            <g id="Clipped">
                <mask id="mask-4" fill="white">
                    <use xlink:href="#path-3"></use>
                </mask>
                <g id="a"></g>
                <path d="M70.3303736,2.68386074 C62.9506944,2.68386074 56.9832773,8.62595841 56.9832773,15.9732851 C56.9832773,23.3220183 62.9506944,29.2636471 70.3303736,29.2636471 C77.7105218,29.2636471 83.7421753,23.3220183 83.7421753,15.9732851 C83.7421753,8.62548953 77.7105218,2.68386074 70.3303736,2.68386074" id="Path" fill="#D11C00" mask="url(#mask-4)"></path>
            </g>
            <g id="Clipped">
                <mask id="mask-6" fill="white">
                    <use xlink:href="#path-5"></use>
                </mask>
                <g id="a"></g>
                <path d="M66.2877029,17.7620567 L67.2507794,16.8046067 L78.2234749,16.2925913 L78.6721917,15.8443435 L67.9569105,15.8443435 L62.0532609,9.0085633 L81.6251887,15.5255061 L75.1434118,22.0447932 L62.0532609,22.0447932 L63.3365814,20.7014562 L74.308808,20.1899097 L74.7579937,19.7435374 L64.3629565,19.7435374 L65.3250953,18.783743 L76.2340233,18.2736032 L76.7469764,17.7620567 L66.2877029,17.7620567 M89.2618134,5.24018651 L90.7373741,5.24018651 C92.0197569,5.24018651 93.1746048,5.62279139 93.1746048,7.02755149 C93.1746048,8.36948185 92.2129349,8.88149721 90.9296143,8.88149721 L90.4161923,8.88149721 L90.4161923,11.1171101 L89.2613445,11.1171101 L89.2613445,5.24018651 M90.4166612,7.98640809 L90.865378,7.98640809 C91.4435052,7.98640809 91.9569272,7.79463677 91.9569272,7.09225672 C91.9569272,6.45411304 91.4435052,6.19810536 90.865378,6.19810536 L90.4166612,6.19810536 L90.4166612,7.98640809 Z M98.6951806,5.17407464 C100.555222,5.17407464 101.58019,6.38987668 101.58019,8.17677278 C101.58019,9.9674199 100.554753,11.1813464 98.6951806,11.1813464 C96.833264,11.1813464 95.8711252,9.9674199 95.8711252,8.17677278 C95.8711252,6.38987668 96.833264,5.17407464 98.6951806,5.17407464 M98.6951806,10.2871951 C99.9142648,10.2871951 100.362044,9.20033462 100.362044,8.17677278 C100.362044,7.15508645 99.8490907,6.06869488 98.6951806,6.06869488 C97.539395,6.06869488 97.0897405,7.15508645 97.0897405,8.17677278 C97.0897405,9.20033462 97.539395,10.2871951 98.6951806,10.2871951 Z M107.933494,6.32470256 C107.549014,6.19763648 107.098422,6.06869488 106.713941,6.06869488 C106.329461,6.06869488 105.816508,6.26093508 105.816508,6.89954765 C105.816508,7.92310949 108.384087,7.47486161 108.384087,9.4563423 C108.384087,10.7340363 107.35818,11.1813464 106.136752,11.1813464 C105.495795,11.1813464 105.241194,11.1161723 104.66166,10.9895751 L104.790602,9.90271466 C105.175082,10.1582535 105.625205,10.2871951 106.075798,10.2871951 C106.522639,10.2871951 107.164534,10.0316563 107.164534,9.5196409 C107.164534,8.43324933 104.597424,8.88102834 104.597424,6.96284625 C104.597424,5.62279139 105.560969,5.17407464 106.585,5.17407464 C107.097953,5.17407464 107.612781,5.24018651 107.999137,5.36678371 L107.933494,6.32470256 M112.620404,6.19810536 L110.950728,6.19810536 L110.950728,5.24018651 L115.443522,5.24018651 L115.443522,6.19810536 L113.775252,6.19810536 L113.775252,11.1166412 L112.620404,11.1166412 L112.620404,6.19810536 M118.330876,5.24018651 L121.794951,5.24018651 L121.794951,6.19810536 L119.486662,6.19810536 L119.486662,7.60380321 L121.603648,7.60380321 L121.603648,8.56172205 L119.486662,8.56172205 L119.486662,10.1582535 L121.794951,10.1582535 L121.794951,11.1166412 L118.330876,11.1166412 L118.330876,5.24018651 M128.214367,6.32470256 C127.891778,6.19763648 127.441655,6.06869488 127.057174,6.06869488 C126.609395,6.06869488 126.095036,6.26093508 126.095036,6.89954765 C126.095036,7.92310949 128.662614,7.47486161 128.662614,9.4563423 C128.662614,10.7340363 127.700476,11.1813464 126.479516,11.1813464 C125.838559,11.1813464 125.58302,11.1161723 125.003486,10.9895751 L125.069598,9.90271466 C125.517846,10.1582535 125.966094,10.2871951 126.418562,10.2871951 C126.865872,10.2871951 127.442124,10.0316563 127.442124,9.5196409 C127.442124,8.43324933 124.87642,8.88102834 124.87642,6.96284625 C124.87642,5.62279139 125.904202,5.17407464 126.928233,5.17407464 C127.442124,5.17407464 127.892716,5.24018651 128.34237,5.36678371 L128.214367,6.32470256 M93.7532009,27.0913329 C93.3682516,27.1551004 92.9195348,27.218399 92.4708181,27.218399 C90.5451339,27.218399 89.1980459,26.3242476 89.1980459,24.342298 C89.1980459,22.2979876 90.4813665,21.2111272 92.4708181,21.2111272 C92.8552985,21.2111272 93.3682516,21.2758324 93.7532009,21.4661971 L93.6894334,22.4269292 C93.2402478,22.1704527 92.8552985,22.1071541 92.4061128,22.1071541 C91.1870287,22.1071541 90.4813665,23.0650729 90.4813665,24.215232 C90.4813665,25.4296274 91.1874975,26.3237787 92.4708181,26.3237787 C92.9195348,26.3237787 93.4334257,26.1948371 93.7532009,26.067771 L93.7532009,27.0913329 M98.439173,21.2763013 L99.7210869,21.2763013 L102.030783,27.1551004 L100.746993,27.1551004 L100.234509,25.8127011 L97.8596391,25.8127011 L97.3462171,27.1551004 L96.126664,27.1551004 L98.439173,21.2763013 M99.0782544,22.4906967 L98.1808209,24.9185498 L99.9142648,24.9185498 L99.0782544,22.4906967 Z M104.854369,21.2763013 L106.32993,21.2763013 L108.513497,25.685635 L108.576796,25.685635 L108.576796,21.2763013 L109.668814,21.2763013 L109.668814,27.1551004 L108.254676,27.1551004 L106.010155,22.810003 L106.010155,27.1551004 L104.854369,27.1551004 L104.854369,21.2763013 M114.73786,21.2763013 L116.084479,21.2763013 L118.394175,27.1551004 L117.111792,27.1551004 L116.597901,25.8127011 L114.223969,25.8127011 L113.710078,27.1551004 L112.490525,27.1551004 L114.73786,21.2763013 M115.378348,22.4906967 L114.544213,24.9185498 L116.277657,24.9185498 L115.378348,22.4906967 Z M121.216823,21.2763013 L122.822732,21.2763013 C124.683242,21.2763013 126.222571,21.9153827 126.222571,24.2161697 C126.222571,26.5141434 124.683242,27.1555692 122.822732,27.1555692 L121.216823,27.1555692 L121.216823,21.2763013 M122.437783,26.195306 L123.079678,26.195306 C124.041348,26.195306 125.003486,25.492926 125.003486,24.2157008 C125.003486,22.9384757 124.041348,22.2337513 123.079678,22.2337513 L122.437783,22.2337513 L122.437783,26.195306 Z M131.100783,21.2763013 L132.44834,21.2763013 L134.758973,27.1551004 L133.411416,27.1551004 L132.897057,25.8127011 L130.522187,25.8127011 L130.009234,27.1551004 L128.789681,27.1551004 L131.100783,21.2763013 M131.74174,22.4906967 L130.907605,24.9185498 L132.576812,24.9185498 L131.74174,22.4906967 Z M10.8446916,11.0524048 C10.3964438,11.1166412 9.94632037,11.1813464 9.49713473,11.1813464 C7.6366247,11.1813464 6.28906779,10.2871951 6.28906779,8.30571437 C6.28906779,6.26093508 7.50815198,5.17360576 9.49713473,5.17360576 C9.88255289,5.17360576 10.3964438,5.23971763 10.8446916,5.42961344 L10.7804553,6.3894078 C10.3317385,6.13246236 9.88255289,6.068226 9.49713473,6.068226 C8.27758166,6.068226 7.50815198,7.02661373 7.50815198,8.1763039 C7.50815198,9.39210594 8.27805054,10.2867262 9.49713473,10.2867262 C9.94632037,10.2867262 10.5244476,10.1577846 10.7804553,10.0311874 L10.8446916,11.0524048 M15.4654896,5.24018651 L16.8121088,5.24018651 L19.1218044,11.1166412 L17.8403594,11.1166412 L17.3255308,9.77564858 L14.9515987,9.77564858 L14.4386456,11.1166412 L13.2195614,11.1166412 L15.4654896,5.24018651 M16.1716207,6.45411304 L16.1059777,6.45411304 L15.2732494,8.88149721 L17.0052867,8.88149721 L16.1716207,6.45411304 Z M21.9463287,5.24018651 L23.3576531,5.24018651 L25.6045191,9.64623811 L25.6045191,5.24018651 L26.7584291,5.24018651 L26.7584291,11.1166412 L25.2828684,11.1166412 L23.0369402,6.77248156 L23.0369402,11.1166412 L21.9463287,11.1166412 L21.9463287,5.24018651 M31.8293505,5.24018651 L33.1764385,5.24018651 L35.4861342,11.1166412 L34.1390461,11.1166412 L33.6256242,9.77564858 L31.2507544,9.77564858 L30.7373324,11.1166412 L29.5182482,11.1166412 L31.8293505,5.24018651 M32.4703074,6.45411304 L31.6352348,8.88149721 L33.3053801,8.88149721 L32.4703074,6.45411304 Z M38.3092518,5.24018651 L39.9137542,5.24018651 C41.7119034,5.24018651 43.315468,5.87645468 43.315468,8.17724165 C43.315468,10.4780286 41.7119034,11.1171101 39.9137542,11.1171101 L38.3092518,11.1171101 L38.3092518,5.24018651 M39.4650374,10.1582535 L40.1711685,10.1582535 C41.1337761,10.1582535 42.0963838,9.45681118 42.0963838,8.17677278 C42.0963838,6.89954765 41.1333073,6.19763648 40.1711685,6.19763648 L39.4650374,6.19763648 L39.4650374,10.1582535 Z M48.1918047,5.24018651 L49.4751253,5.24018651 L51.7857587,11.1166412 L50.5024382,11.1166412 L49.9890162,9.77564858 L47.6146153,9.77564858 L47.1016621,11.1166412 L45.8821091,11.1166412 L48.1918047,5.24018651 M48.8336994,6.45411304 L48.7689942,6.45411304 L47.9343904,8.88149721 L49.6673655,8.88149721 L48.8336994,6.45411304 Z M6.48130799,21.2763013 L7.95686874,21.2763013 C9.24065817,21.2763013 10.3959749,21.6593751 10.3959749,23.0655418 C10.3959749,24.4084099 9.43242949,24.9180809 8.14957782,24.9180809 L7.63615582,24.9180809 L7.63615582,27.1551004 L6.48083911,27.1551004 L6.48083911,21.2763013 M7.6366247,24.0239295 L8.08581034,24.0239295 C8.66299982,24.0239295 9.17642181,23.8307516 9.17642181,23.1297781 C9.17642181,22.4906967 8.66299982,22.2342201 8.08581034,22.2342201 L7.6366247,22.2342201 L7.6366247,24.0239295 Z M15.9146752,21.2115961 C17.7756541,21.2115961 18.8020293,22.4273981 18.8020293,24.2157008 C18.8020293,26.0044724 17.7756541,27.218399 15.9146752,27.218399 C14.0532275,27.218399 13.0910887,26.0044724 13.0910887,24.2157008 C13.0910887,22.4273981 14.0536963,21.2115961 15.9146752,21.2115961 M15.9146752,26.3247165 C17.1342283,26.3247165 17.5829451,25.2373872 17.5829451,24.2161697 C17.5829451,23.1926079 17.1342283,22.1080918 15.9146752,22.1080918 C14.7593585,22.1080918 14.309704,23.1926079 14.309704,24.2161697 C14.3101729,25.2369183 14.7598274,26.3247165 15.9146752,26.3247165 Z M25.1548645,22.3612862 C24.7699153,22.2342201 24.3844971,22.1076229 23.9357803,22.1076229 C23.5512999,22.1076229 23.0364713,22.2979876 23.0364713,22.9384757 C23.0364713,23.960162 25.6045191,23.5119141 25.6045191,25.4924571 C25.6045191,26.7720266 24.5776751,27.218399 23.4228272,27.218399 C22.7804636,27.218399 22.4592818,27.1546315 21.8820924,27.0256899 L22.0105651,25.9411738 C22.3955144,26.1948371 22.8451689,26.3237787 23.2938856,26.3237787 C23.7426024,26.3237787 24.3844971,26.067771 24.3844971,25.5576312 C24.3844971,24.4712396 21.8173871,24.917612 21.8173871,23.0013054 C21.8173871,21.6589062 22.8447,21.2111272 23.8710751,21.2111272 C24.3197919,21.2111272 24.8332139,21.2758324 25.2191009,21.4033674 L25.1548645,22.3612862 M29.8389611,22.2342201 L28.1706913,22.2342201 L28.1706913,21.2763013 L32.6630165,21.2763013 L32.6630165,22.2342201 L30.9947467,22.2342201 L30.9947467,27.1551004 L29.8389611,27.1551004 L29.8389611,22.2342201" id="Shape" fill="#FFFFFF" mask="url(#mask-6)"></path>
            </g>
        </g>
    </g>
</svg>