<?xml version="1.0" encoding="UTF-8"?>
<svg width="200px" height="145px" viewBox="0 0 200 145" version="1.1" xmlns="http://www.w3.org/2000/svg" xmlns:xlink="http://www.w3.org/1999/xlink">
    <title>ShipStation Partner Logo - Amazon</title>
    <g id="ShipStation-Partner-Logo---Amazon" stroke="none" stroke-width="1" fill="none" fill-rule="evenodd">
        <g id="Amazon.com-Logo-(1)" transform="translate(44.000000, 60.000000)">
            <path d="M69.8910033,26.4939891 C63.3538972,31.2874317 53.884432,33.8513661 45.7223881,33.8513661 C34.291791,33.8513661 23.9818408,29.6338798 16.1933458,22.6480874 C15.57699,22.0907104 16.1373134,21.347541 16.8657338,21.7748634 C25.2705846,26.642623 35.6739221,29.5595628 46.4134536,29.5595628 C53.6603027,29.5595628 61.6168947,28.073224 68.9384536,24.9704918 C70.0404229,24.5060109 70.9742952,25.695082 69.8910033,26.4939891" id="path8" fill="#FF9900"></path>
            <path d="M72.599233,23.4098361 C71.7587479,22.3508197 67.070709,22.9081967 64.978835,23.1497268 C64.3438018,23.2240437 64.2317371,22.6666667 64.810738,22.2765027 C68.5462272,19.6568306 74.6724295,20.4185792 75.4008499,21.2918033 C76.1105929,22.1650273 75.2140755,28.2775956 71.7027156,31.2131148 C71.1610697,31.6590164 70.6567786,31.4174863 70.880908,30.8229508 C71.6840381,28.8721311 73.4397181,24.4688525 72.599233,23.4098361" id="path10" fill="#FF9900"></path>
            <path d="M65.1282546,3.80874317 L65.1282546,1.26338798 C65.1282546,0.873224044 65.4270937,0.613114754 65.7819652,0.613114754 L77.2312396,0.613114754 C77.6047886,0.613114754 77.8849502,0.873224044 77.8849502,1.26338798 L77.8849502,3.43715847 C77.8849502,3.80874317 77.5674337,4.27322404 77.0257877,5.03497268 L71.1050373,13.4513661 C73.308976,13.3956284 75.6436567,13.7300546 77.623466,14.8448087 C78.0717247,15.104918 78.2024668,15.4765027 78.2398217,15.8295082 L78.2398217,18.5420765 C78.2398217,18.9136612 77.8289179,19.3409836 77.3993367,19.1180328 C73.8879768,17.2786885 69.1999378,17.0743169 65.315029,19.136612 C64.9228027,19.3595628 64.4932214,18.9136612 64.4932214,18.5606557 L64.4932214,15.9967213 C64.4932214,15.5879781 64.4932214,14.8819672 64.9228027,14.2502732 L71.7587479,4.45901639 L65.7819652,4.45901639 C65.4084163,4.45901639 65.1282546,4.1989071 65.1282546,3.80874317" id="path12" fill="#221F1F"></path>
            <path d="M23.3841625,19.6754098 L19.9101575,19.6754098 C19.5739635,19.6568306 19.3124793,19.3967213 19.2938018,19.0808743 L19.2938018,1.31912568 C19.2938018,0.966120219 19.592641,0.687431694 19.9661899,0.687431694 L23.2160655,0.687431694 C23.5522595,0.706010929 23.8324212,0.966120219 23.8510987,1.28196721 L23.8510987,3.60437158 L23.907131,3.60437158 C24.7476161,1.35628415 26.3538765,0.315846995 28.4831053,0.315846995 C30.6683665,0.315846995 32.0318201,1.35628415 33.0030473,3.60437158 C33.8435323,1.35628415 35.7673093,0.315846995 37.8031509,0.315846995 C39.2599917,0.315846995 40.8662521,0.910382514 41.8374793,2.26666667 C42.9394486,3.75300546 42.7153192,5.92677596 42.7153192,7.84043716 L42.7153192,19.0622951 C42.7153192,19.4153005 42.4164801,19.7125683 42.0429312,19.7125683 L38.5689262,19.7125683 C38.2140547,19.6939891 37.933893,19.4153005 37.933893,19.0622951 L37.933893,9.60546448 C37.933893,8.86229508 38.0086028,6.98579235 37.8405058,6.27978142 C37.5790216,5.09071038 36.7945688,4.75628415 35.7859867,4.75628415 C34.9455017,4.75628415 34.0676617,5.3136612 33.7127902,6.20546448 C33.3579187,7.09726776 33.3952736,8.60218579 33.3952736,9.60546448 L33.3952736,19.0251366 C33.3952736,19.3781421 33.0964345,19.6754098 32.7228856,19.6754098 L29.2488806,19.6754098 C28.8940091,19.6568306 28.6138474,19.3781421 28.6138474,19.0251366 L28.6138474,9.60546448 C28.6138474,7.61748634 28.9500415,4.70054645 26.4659411,4.70054645 C23.9631633,4.70054645 24.0565506,7.5431694 24.0565506,9.60546448 L24.0565506,19.0251366 C24.0565506,19.3967213 23.7577114,19.6754098 23.3841625,19.6754098" id="path14" fill="#221F1F"></path>
            <path d="M87.7279643,0.29726776 C92.9016169,0.29726776 95.6845564,4.71912568 95.6845564,10.3300546 C95.6845564,15.7551913 92.6027778,20.0469945 87.7279643,20.0469945 C82.647699,20.0469945 79.9020216,15.6251366 79.9020216,10.1256831 C79.883437,4.60765027 82.6850539,0.29726776 87.7279643,0.29726776 M87.7466418,3.92021858 C85.1878317,3.92021858 85.0197081,7.39453552 85.0197081,9.56830601 C85.0197081,11.7420765 84.9823798,16.3868852 87.7092869,16.3868852 C90.3988391,16.3868852 90.5295813,12.652459 90.5295813,10.3672131 C90.5295813,8.86229508 90.4735489,7.07868852 90.0066128,5.64808743 C89.6330638,4.40327869 88.8672886,3.92021858 87.7466418,3.92021858" id="path16" fill="#221F1F"></path>
            <path d="M102.38976,19.6754098 L98.9157546,19.6754098 C98.5608831,19.6568306 98.2807214,19.3781421 98.2807214,19.0251366 L98.2807214,1.24480874 C98.3180763,0.910382514 98.598238,0.668852459 98.9531095,0.668852459 L102.184308,0.668852459 C102.483147,0.687431694 102.744631,0.891803279 102.800663,1.1704918 L102.800663,3.88306011 L102.856696,3.88306011 C103.827923,1.44918033 105.191376,0.29726776 107.600767,0.29726776 C109.169672,0.29726776 110.682546,0.854644809 111.67245,2.39672131 C112.587645,3.8273224 112.587645,6.20546448 112.587645,7.93333333 L112.587645,19.1180328 C112.55029,19.4338798 112.251451,19.6754098 111.915257,19.6754098 L108.422575,19.6754098 C108.105058,19.6568306 107.843574,19.4153005 107.806219,19.1180328 L107.806219,9.4568306 C107.806219,7.50601093 108.030348,4.66338798 105.620958,4.66338798 C104.780473,4.66338798 103.99602,5.22076503 103.603794,6.09398907 C103.11818,7.1715847 103.04347,8.26775956 103.04347,9.4568306 L103.04347,19.0251366 C103.062148,19.3967213 102.763308,19.6754098 102.38976,19.6754098" id="path18" fill="#221F1F"></path>
            <path d="M55.9949834,11.1846995 C55.9949834,12.5409836 56.0323383,13.6557377 55.3412728,14.863388 C54.7809494,15.8295082 53.9031095,16.442623 52.9318823,16.442623 C51.5871061,16.442623 50.8026534,15.420765 50.8026534,13.9344262 C50.8026534,10.9803279 53.4548507,10.4415301 55.976306,10.4415301 L55.9949834,11.1846995 M59.5063433,19.6196721 C59.2822139,19.8240437 58.9460199,19.842623 58.6845357,19.6939891 C57.526534,18.7464481 57.3210821,18.3005464 56.6860489,17.3901639 C54.7809494,19.3224044 53.4174959,19.9169399 50.952073,19.9169399 C48.0197139,19.9169399 45.7410655,18.1147541 45.7410655,14.5289617 C45.7410655,11.7234973 47.2726161,9.80983607 49.4578773,8.86229508 C51.3442993,8.02622951 53.9964967,7.89617486 56.0136609,7.65464481 L56.0136609,7.20874317 C56.0136609,6.39125683 56.0696932,5.40655738 55.5840796,4.70054645 C55.1544983,4.06885246 54.3513682,3.79016393 53.6229478,3.79016393 C52.2968491,3.79016393 51.12017,4.45901639 50.8213308,5.87103825 C50.7652985,6.18688525 50.5411692,6.48415301 50.2049751,6.50273224 L46.8243574,6.14972678 C46.5441957,6.09398907 46.2266791,5.85245902 46.3013889,5.42513661 C47.0671642,1.35628415 50.783976,0.130054645 54.0898839,0.130054645 C55.7895315,0.130054645 57.9934701,0.575956284 59.3382463,1.8579235 C61.0378939,3.43715847 60.8697968,5.53661202 60.8697968,7.82185792 L60.8697968,13.2098361 C60.8697968,14.8262295 61.5421849,15.5508197 62.1772181,16.4240437 C62.4013474,16.7398907 62.4387023,17.1114754 62.1585406,17.3530055 C61.4674751,17.9289617 60.2160862,19.0251366 59.5063433,19.6196721 L59.5063433,19.6196721" id="path28" fill="#221F1F"></path>
            <path d="M10.3659826,11.1846995 C10.3659826,12.5409836 10.4033375,13.6557377 9.71227197,14.863388 C9.15194859,15.8295082 8.27410862,16.442623 7.30288143,16.442623 C5.95810531,16.442623 5.19233002,15.420765 5.19233002,13.9344262 C5.19233002,10.9803279 7.84452736,10.4415301 10.3659826,10.4415301 L10.3659826,11.1846995 M13.8773425,19.6196721 C13.6532131,19.8240437 13.3170191,19.842623 13.0555348,19.6939891 C11.8975332,18.7464481 11.6920813,18.3005464 11.0570481,17.3901639 C9.15194859,19.3224044 7.78849502,19.9169399 5.32307214,19.9169399 C2.3907131,19.9169399 0.112064677,18.1147541 0.112064677,14.5289617 C0.112064677,11.7234973 1.64361526,9.80983607 3.82887645,8.86229508 C5.71529851,8.02622951 8.36749585,7.89617486 10.38466,7.65464481 L10.38466,7.20874317 C10.38466,6.39125683 10.4406924,5.40655738 9.95507877,4.70054645 C9.52549751,4.06885246 8.72236733,3.79016393 7.99394693,3.79016393 C6.66784826,3.79016393 5.49116915,4.45901639 5.19233002,5.87103825 C5.13629768,6.18688525 4.91216833,6.48415301 4.59465174,6.50273224 L1.214034,6.14972678 C0.933872305,6.09398907 0.616355721,5.85245902 0.691065506,5.42513661 C1.47551824,1.35628415 5.17365257,0.130054645 8.47956053,0.130054645 C10.1792081,0.130054645 12.3831468,0.575956284 13.7279229,1.8579235 C15.4275705,3.43715847 15.2594735,5.53661202 15.2594735,7.82185792 L15.2594735,13.2098361 C15.2594735,14.8262295 15.9318615,15.5508197 16.5668947,16.4240437 C16.791024,16.7398907 16.8470564,17.1114754 16.5482172,17.3530055 C15.8384743,17.9289617 14.568408,19.0251366 13.8773425,19.6196721 L13.8773425,19.6196721" id="path30" fill="#221F1F"></path>
        </g>
    </g>
</svg>