<?xml version="1.0" encoding="UTF-8"?>
<svg width="200px" height="145px" viewBox="0 0 200 145" version="1.1" xmlns="http://www.w3.org/2000/svg" xmlns:xlink="http://www.w3.org/1999/xlink">
    <title>ShipStation Partner Logo - Hermes</title>
    <defs>
        <linearGradient x1="57.7811634%" y1="101.515789%" x2="43.5304709%" y2="-0.889473684%" id="linearGradient-1">
            <stop stop-color="#646469" offset="0%"></stop>
            <stop stop-color="#A9A9AE" offset="45.8%"></stop>
            <stop stop-color="#D9D9DE" offset="82%"></stop>
            <stop stop-color="#EBEBF0" offset="100%"></stop>
        </linearGradient>
        <linearGradient x1="24.6343972%" y1="53.892391%" x2="83.4042553%" y2="43.9243436%" id="linearGradient-2">
            <stop stop-color="#E6F0F5" offset="0%"></stop>
            <stop stop-color="#CBE4EF" offset="6.2%"></stop>
            <stop stop-color="#96CDE4" offset="19.8%"></stop>
            <stop stop-color="#68B9DA" offset="33.5%"></stop>
            <stop stop-color="#42A9D1" offset="47.2%"></stop>
            <stop stop-color="#259CCB" offset="60.7%"></stop>
            <stop stop-color="#1193C7" offset="74.1%"></stop>
            <stop stop-color="#048EC4" offset="87.3%"></stop>
            <stop stop-color="#008CC3" offset="100%"></stop>
        </linearGradient>
        <linearGradient x1="-10.4695291%" y1="-12.254386%" x2="90.8725454%" y2="109.819298%" id="linearGradient-3">
            <stop stop-color="#E6F0F5" offset="0%"></stop>
            <stop stop-color="#DDECF3" offset="9.2%"></stop>
            <stop stop-color="#C5E1EE" offset="24.1%"></stop>
            <stop stop-color="#9DD0E5" offset="43%"></stop>
            <stop stop-color="#66B8D9" offset="65%"></stop>
            <stop stop-color="#209ACA" offset="89.5%"></stop>
            <stop stop-color="#008CC3" offset="100%"></stop>
        </linearGradient>
        <linearGradient x1="57.8408126%" y1="100.135088%" x2="43.2649431%" y2="-2.26842105%" id="linearGradient-4">
            <stop stop-color="#646469" offset="0%"></stop>
            <stop stop-color="#A9A9AE" offset="45.8%"></stop>
            <stop stop-color="#D9D9DE" offset="82%"></stop>
            <stop stop-color="#EBEBF0" offset="100%"></stop>
        </linearGradient>
        <linearGradient x1="-0.246808511%" y1="50.5280702%" x2="100.025532%" y2="50.5280702%" id="linearGradient-5">
            <stop stop-color="#E6F0F5" offset="0%"></stop>
            <stop stop-color="#C0DEEA" offset="10.5%"></stop>
            <stop stop-color="#86C2DA" offset="28.3%"></stop>
            <stop stop-color="#56ABCC" offset="45.4%"></stop>
            <stop stop-color="#3199C2" offset="61.6%"></stop>
            <stop stop-color="#168DBA" offset="76.5%"></stop>
            <stop stop-color="#0685B6" offset="89.8%"></stop>
            <stop stop-color="#0082B4" offset="100%"></stop>
        </linearGradient>
        <linearGradient x1="-2.78983353%" y1="-1.16724138%" x2="91.2648633%" y2="100.574138%" id="linearGradient-6">
            <stop stop-color="#E6F0F5" offset="0%"></stop>
            <stop stop-color="#C7E1EC" offset="16%"></stop>
            <stop stop-color="#77BBD6" offset="51.2%"></stop>
            <stop stop-color="#0082B4" offset="100%"></stop>
        </linearGradient>
        <linearGradient x1="56.9969837%" y1="100.331579%" x2="42.4324408%" y2="-2.02631579%" id="linearGradient-7">
            <stop stop-color="#646469" offset="0%"></stop>
            <stop stop-color="#A9A9AE" offset="45.8%"></stop>
            <stop stop-color="#D9D9DE" offset="82%"></stop>
            <stop stop-color="#EBEBF0" offset="100%"></stop>
        </linearGradient>
        <linearGradient x1="-2.02150538%" y1="38.4194242%" x2="92.4892473%" y2="51.7945543%" id="linearGradient-8">
            <stop stop-color="#E6F0F5" offset="0%"></stop>
            <stop stop-color="#C6E0EB" offset="10.4%"></stop>
            <stop stop-color="#80BDD6" offset="34.8%"></stop>
            <stop stop-color="#49A2C5" offset="56.7%"></stop>
            <stop stop-color="#218EB9" offset="75.5%"></stop>
            <stop stop-color="#0981B2" offset="90.3%"></stop>
            <stop stop-color="#007DAF" offset="99.4%"></stop>
        </linearGradient>
        <linearGradient x1="-0.204678363%" y1="1.62280702%" x2="100.124654%" y2="108.278947%" id="linearGradient-9">
            <stop stop-color="#E6F0F5" offset="0%"></stop>
            <stop stop-color="#90C5DB" offset="33.2%"></stop>
            <stop stop-color="#439EC3" offset="65.7%"></stop>
            <stop stop-color="#1386B5" offset="88.6%"></stop>
            <stop stop-color="#007DAF" offset="100%"></stop>
        </linearGradient>
    </defs>
    <g id="ShipStation-Partner-Logo---Hermes" stroke="none" stroke-width="1" fill="none" fill-rule="evenodd">
        <g id="hermes" transform="translate(30.000000, 62.000000)" fill-rule="nonzero">
            <polyline id="Path" fill="url(#linearGradient-1)" points="32.6857143 5.97142857 34.152381 0 30.9047619 0 29.4380952 5.97142857"></polyline>
            <polyline id="Path" fill="url(#linearGradient-2)" points="28.0761905 5.97142857 29.5428571 0 0 0 5.13333333 5.97142857"></polyline>
            <polyline id="Path" fill="url(#linearGradient-3)" points="5.13333333 5.97142857 0 0 0 1.88571429 4.2952381 5.97142857"></polyline>
            <g id="Group" transform="translate(7.333333, 7.333333)">
                <polyline id="Path" fill="url(#linearGradient-4)" points="23.3619048 6.39047619 24.9333333 0.419047619 21.6857143 0.419047619 20.1142857 6.39047619"></polyline>
                <polyline id="Path" fill="url(#linearGradient-5)" points="18.752381 6.28571429 20.3238095 0.314285714 0.628571429 0.314285714 5.86666667 6.28571429"></polyline>
                <polyline id="Path" fill="url(#linearGradient-6)" points="5.86666667 6.28571429 0.628571429 0.314285714 0.628571429 2.0952381 5.13333333 6.39047619"></polyline>
            </g>
            <g id="Group" transform="translate(15.714286, 14.666667)">
                <polyline id="Path" fill="url(#linearGradient-7)" points="13.0952381 6.7047619 14.6666667 0.733333333 11.4190476 0.733333333 9.84761905 6.7047619"></polyline>
                <polyline id="Path" fill="url(#linearGradient-8)" points="8.48571429 6.7047619 9.95238095 0.733333333 0.20952381 0.733333333 5.44761905 6.7047619"></polyline>
                <polyline id="Path" fill="url(#linearGradient-9)" points="5.55238095 6.7047619 0.314285714 0.733333333 0.314285714 2.40952381 4.81904762 6.7047619"></polyline>
            </g>
            <path d="M140.27619,4.2952381 L139.752381,6.28571429 C139.542857,7.22857143 139.019048,7.54285714 137.971429,7.54285714 L134.828571,7.54285714 C133.466667,7.54285714 132.942857,7.64761905 132.628571,7.96190476 C132.314286,8.27619048 132.209524,8.6952381 132.209524,9.21904762 C132.209524,9.74285714 132.419048,9.95238095 133.257143,10.1619048 L136.4,11.1047619 C138.6,11.7333333 139.228571,12.3619048 139.228571,14.0380952 C139.228571,15.7142857 138.6,18.3333333 137.657143,19.5904762 C136.714286,20.7428571 135.561905,21.2666667 133.780952,21.2666667 L126.028571,21.2666667 C125.4,21.2666667 125.190476,20.847619 125.295238,20.3238095 L126.238095,16.447619 L127.180952,16.447619 C127.390476,17.2857143 128.019048,17.6 129.27619,17.6 L132.314286,17.6 C133.466667,17.6 133.990476,17.3904762 134.304762,17.0761905 C134.619048,16.7619048 134.828571,16.1333333 134.828571,15.7142857 C134.828571,14.9809524 134.619048,14.7714286 133.047619,14.4571429 L129.904762,13.6190476 C128.228571,13.2 127.495238,12.2571429 127.495238,10.8952381 C127.495238,9.53333333 128.12381,7.64761905 128.857143,6.39047619 C129.695238,4.92380952 131.057143,4.2952381 133.361905,4.2952381 L140.27619,4.2952381 L140.27619,4.2952381 Z M70.4,8.48571429 C70.4,9.74285714 69.8761905,11.9428571 69.4571429,12.7809524 C69.1428571,13.4095238 68.7238095,13.6190476 67.152381,13.6190476 L59.8190476,13.6190476 L59.5047619,14.9809524 C59.4,15.2952381 59.4,15.7142857 59.4,16.0285714 C59.4,16.6571429 59.6095238,17.1809524 60.1333333,17.4952381 C60.552381,17.8095238 61.3904762,17.9142857 62.752381,17.9142857 C65.6857143,17.9142857 66.3142857,17.4952381 67.2571429,16.2380952 L68.2,16.2380952 L67.5714286,18.5428571 C67.152381,20.2190476 67.047619,20.5333333 66.4190476,20.847619 C65.5809524,21.2666667 64.0095238,21.4761905 61.4952381,21.4761905 C59.1904762,21.4761905 57.7238095,21.2666667 56.8857143,20.847619 C55.6285714,20.2190476 54.8952381,18.752381 54.8952381,16.8666667 C54.8952381,13.7238095 56.4666667,8.9047619 58.0380952,6.91428571 C59.6095238,4.92380952 61.6,4.19047619 65.0571429,4.19047619 C68.8285714,4.08571429 70.5047619,5.44761905 70.4,8.48571429 Z M66.7333333,9.00952381 C66.7333333,7.75238095 66,7.22857143 64.3238095,7.22857143 C62.1238095,7.22857143 61.2857143,8.06666667 60.552381,10.7904762 L66.4190476,10.7904762 C66.6285714,9.95238095 66.7333333,9.53333333 66.7333333,9.00952381 L66.7333333,9.00952381 Z M124.666667,8.48571429 C124.666667,9.74285714 124.142857,11.9428571 123.72381,12.7809524 C123.409524,13.4095238 122.885714,13.5142857 121.314286,13.5142857 L113.980952,13.5142857 L113.666667,14.8761905 C113.561905,15.1904762 113.561905,15.6095238 113.561905,15.9238095 C113.561905,16.552381 113.771429,17.0761905 114.295238,17.3904762 C114.714286,17.7047619 115.552381,17.8095238 116.914286,17.8095238 C119.847619,17.8095238 120.47619,17.3904762 121.419048,16.1333333 L122.361905,16.1333333 L121.733333,18.4380952 C121.314286,20.1142857 121.209524,20.4285714 120.580952,20.7428571 C119.742857,21.1619048 118.171429,21.3714286 115.657143,21.3714286 C113.352381,21.3714286 111.885714,21.1619048 111.047619,20.7428571 C109.790476,20.1142857 109.057143,18.647619 109.057143,16.7619048 C109.057143,13.6190476 110.628571,8.8 112.2,6.80952381 C113.771429,4.81904762 115.761905,4.08571429 119.219048,4.08571429 C123.095238,4.08571429 124.771429,5.44761905 124.666667,8.48571429 L124.666667,8.48571429 Z M121,9.00952381 C121,7.75238095 120.266667,7.22857143 118.590476,7.22857143 C116.390476,7.22857143 115.552381,8.06666667 114.819048,10.7904762 L120.685714,10.7904762 C120.895238,9.95238095 121,9.53333333 121,9.00952381 L121,9.00952381 Z M55.5238095,0.942857143 C55.6285714,0.419047619 55.3142857,0 54.7904762,0 L50.0761905,0 L49.9714286,0.628571429 C50.8095238,0.838095238 50.4952381,1.78095238 50.3904762,2.2 C50.1809524,3.14285714 48.9238095,7.85714286 48.9238095,7.85714286 L42.5333333,7.85714286 L44.3142857,0.942857143 C44.4190476,0.419047619 44.2095238,0 43.5809524,0 L38.8666667,0 L38.7619048,0.628571429 C39.6,0.838095238 39.2857143,1.78095238 39.1809524,2.2 C38.552381,5.02857143 34.4666667,20.5333333 34.4666667,20.5333333 C34.3619048,20.952381 34.5714286,21.4761905 35.2,21.4761905 L39.9142857,21.4761905 L40.0190476,20.847619 C39.1809524,20.6380952 39.4952381,19.6952381 39.6,19.2761905 C39.7047619,18.8571429 41.5904762,11.3142857 41.5904762,11.3142857 L47.9809524,11.3142857 L45.5714286,20.5333333 C45.4666667,20.952381 45.6761905,21.4761905 46.3047619,21.4761905 L51.0190476,21.4761905 L51.1238095,20.847619 C50.2857143,20.6380952 50.6,19.6952381 50.7047619,19.2761905 C50.9142857,18.8571429 55.5238095,0.942857143 55.5238095,0.942857143 L55.5238095,0.942857143 Z M104.971429,4.19047619 L102.666667,4.19047619 C101.514286,4.19047619 100.885714,4.4 100.152381,5.55238095 L99.3142857,6.91428571 C99.4190476,5.55238095 98.6857143,4.19047619 96.3809524,4.19047619 L94.2857143,4.19047619 C92.5047619,4.19047619 92.0857143,4.92380952 91.6666667,5.44761905 L90.7238095,6.7047619 L91.1428571,5.23809524 C91.247619,4.81904762 91.0380952,4.2952381 90.4095238,4.2952381 L86.2190476,4.2952381 L86.0095238,4.92380952 C86.4285714,5.02857143 86.6380952,5.34285714 86.6380952,5.65714286 C86.6380952,5.86666667 86.6380952,5.97142857 86.5333333,6.28571429 L82.8666667,20.5333333 C82.7619048,20.952381 82.9714286,21.4761905 83.6,21.4761905 L87.7904762,21.4761905 L87.8952381,20.847619 C87.4761905,20.7428571 87.3714286,20.4285714 87.3714286,20.2190476 C87.3714286,20.1142857 87.3714286,19.9047619 87.4761905,19.4857143 C87.4761905,19.4857143 89.8857143,10.5809524 89.8857143,10.4761905 C90.4095238,8.17142857 91.0380952,7.96190476 92.2952381,7.75238095 C92.5047619,7.75238095 92.7142857,7.75238095 93.1333333,7.75238095 C94.2857143,7.75238095 94.7047619,8.48571429 94.4952381,9.32380952 C94.4952381,9.53333333 91.6666667,20.6380952 91.6666667,20.6380952 C91.5619048,21.0571429 91.7714286,21.5809524 92.4,21.5809524 L96.5904762,21.5809524 L96.6952381,20.952381 C96.2761905,20.847619 96.1714286,20.5333333 96.1714286,20.3238095 C96.1714286,20.2190476 96.1714286,20.0095238 96.2761905,19.5904762 C96.2761905,19.5904762 98.6857143,10.5809524 98.6857143,10.5809524 C99.3142857,8.27619048 99.8380952,8.06666667 101.095238,7.85714286 C101.304762,7.85714286 101.514286,7.85714286 101.933333,7.85714286 C103.190476,7.85714286 103.504762,8.59047619 103.295238,9.42857143 C103.295238,9.53333333 100.466667,20.7428571 100.466667,20.7428571 C100.361905,21.1619048 100.571429,21.6857143 101.2,21.6857143 L105.390476,21.6857143 L105.495238,21.0571429 C105.07619,20.952381 104.971429,20.6380952 104.971429,20.4285714 C104.971429,20.3238095 104.971429,20.1142857 105.07619,19.6952381 C105.07619,19.6952381 107.904762,8.38095238 108.009524,7.85714286 C108.219048,6.4952381 108.219048,4.19047619 104.971429,4.19047619 L104.971429,4.19047619 Z M81.5047619,4.2952381 C80.4571429,4.2952381 80.352381,4.2952381 79.8285714,5.02857143 L78.5714286,6.7047619 L78.9904762,5.23809524 C79.0952381,4.81904762 78.8857143,4.2952381 78.2571429,4.2952381 L74.0666667,4.2952381 L73.9619048,4.92380952 C74.3809524,5.02857143 74.4857143,5.34285714 74.4857143,5.55238095 C74.4857143,5.65714286 74.4857143,5.86666667 74.3809524,6.28571429 L70.7142857,20.5333333 C70.6095238,20.952381 70.8190476,21.4761905 71.447619,21.4761905 L75.6380952,21.4761905 L75.7428571,20.847619 C75.3238095,20.7428571 75.2190476,20.4285714 75.2190476,20.2190476 C75.2190476,20.1142857 75.2190476,19.9047619 75.3238095,19.4857143 L77.7333333,10.3714286 C78.2571429,8.27619048 78.7809524,7.85714286 80.6666667,7.85714286 L82.3428571,7.85714286 C83.6,7.85714286 84.0190476,7.54285714 84.2285714,6.6 L84.8571429,4.4 L81.5047619,4.2952381 L81.5047619,4.2952381 Z" id="Shape" fill="#3C3C41"></path>
        </g>
    </g>
</svg>