<?xml version="1.0" encoding="UTF-8"?> <svg xmlns="http://www.w3.org/2000/svg" id="Layer_1" data-name="Layer 1" viewBox="0 0 200 145"><defs><style>.cls-1{fill:#00adee;}.cls-2{fill:#003768;}.cls-3{fill:#da1a32;}</style></defs><path class="cls-1" d="M134.85,72.23h0Z"></path><path class="cls-1" d="M134.86,72.24h0Z"></path><polygon class="cls-1" points="137.41 72.72 137.43 72.72 137.39 72.71 137.41 72.72"></polygon><path class="cls-1" d="M145.65,65.92h-3.52l-3.56,5.15c1.08.24,2.13.49,3.14.77l1.1-1.7.5,4c-.84-.25-1.7-.49-2.59-.71l-.22-.06-.35-.08-.6-.15h0c-.69-.16-1.39-.32-2.11-.46h0c-.83-.17-1.65-.32-2.53-.47h0A102.86,102.86,0,0,0,123.68,71l-2.15,8h3.59l1.38-5.12,1.16.11,2.08,5H137L140,74.79a26.66,26.66,0,0,1,3.65,2l.28,2.2h3.78ZM133.33,78.65l-1.85-4a5.56,5.56,0,0,0,3-1.79v0c.83.24,1.63.49,2.4.76Z"></path><path class="cls-1" d="M115.2,70.83,113,79h3.62l2.18-8.15-1.54,0-2.06,0"></path><path class="cls-1" d="M123.16,69.07,124,66H112.61l-.82,3c1.79-.08,3.61-.13,5.47-.13s4,0,5.9.15"></path><path class="cls-1" d="M135.37,70a3.62,3.62,0,0,0-1-2.65c-.87-.87-2.3-1.35-4.46-1.35H125l-.83,3.12a99.65,99.65,0,0,1,11.17,1.3c0-.13,0-.28,0-.42"></path><path class="cls-1" d="M156.69,74.66A3.74,3.74,0,0,1,153.91,76a2.5,2.5,0,0,1-2.6-2.67A4.16,4.16,0,0,1,155.19,69a2.71,2.71,0,0,1,2.61,1.67L160.91,69a5.26,5.26,0,0,0-5.26-3.28,7.94,7.94,0,0,0-8.1,7.82c0,.06,0,.13,0,.19a5.9,5.9,0,0,0,.41,2.06c.85,2.14,3,3.42,5.72,3.42h.4a7.72,7.72,0,0,0,1.73-.28,6.86,6.86,0,0,0,3.29-2.14Z"></path><polygon class="cls-1" points="174.28 66.01 170.13 66.01 164.47 72.32 166.17 66.01 162.55 66.01 159.07 78.98 162.67 78.98 164.46 72.33 167.72 78.98 171.63 78.98 168.33 72.32 174.28 66.01"></polygon><path class="cls-2" d="M110.31,67.37c-.87-.88-2.29-1.36-4.46-1.36H101L99.8,70.32a100.14,100.14,0,0,1,11.42-1.23,3.31,3.31,0,0,0-.91-1.72"></path><path class="cls-2" d="M111.22,71a100.23,100.23,0,0,0-10.13,1l-.23,0-.68.11-.36.06-.55.1-.1,0-.34.06-.86.16-.15,0-.86.17-.32.07-.58.12h0l-.34.07-.62.14-.29.07-.86.21-.19,0-.68.18-.31.08-.14,0h0l-.29.08h0l-.12,0-.31.09-.6.18-.23.06-.79.25-.23.08c-.19,0-.37.11-.56.18l-.29.09-.11,0,3.08-4.72L92.36,72c1.1-.3,2.23-.59,3.41-.85L95,65.92H91.45L82.43,79h3.89a25.32,25.32,0,0,1,6.41-3.81L93.21,79H97l-.79-5.11c.92-.3,1.88-.59,2.87-.85l-1.6,6h3.59l1.2-4.45,1.48-.21L105.65,79h3.77l-2-4.37c2.25-.61,3.48-1.93,3.8-3.63"></path><polygon class="cls-2" points="87.39 69.16 88.22 66.01 76.86 66.01 76.01 69.16 79.9 69.16 77.25 78.98 80.86 78.98 83.5 69.16 87.39 69.16"></polygon><path class="cls-2" d="M71.24,68.79a9.82,9.82,0,0,1,3.71.39l.79-2.91a12.28,12.28,0,0,0-3.86-.48c-3.17,0-5.51,1.84-5.51,4.41,0,1.91,1.32,2.8,3.38,3.58,1.81.7,2.17,1,2.17,1.46s-.62,1-1.47,1a4.12,4.12,0,0,1-.7,0h0l-.41-.08A8.8,8.8,0,0,1,66,74.64l-.84,3.06a8.4,8.4,0,0,0,5,1.51c3.23,0,5.53-1.82,5.53-4.49,0-1.94-1.37-2.85-3.38-3.61-1.77-.71-2.16-.89-2.16-1.41s.41-.82,1.09-.91h0Z"></path><path class="cls-3" d="M25.72,72.5A16.16,16.16,0,0,0,36.15,87.62V57.38A16.15,16.15,0,0,0,25.72,72.5"></path><path class="cls-3" d="M41.87,56.34c-.44,0-.89,0-1.32,0v1.13h.08c6.16,0,11.11,4.75,11.07,10.5s-5,10.33-11.15,10.32V88.61c.43,0,.88,0,1.32,0a16.16,16.16,0,1,0,0-32.32"></path></svg> 