<?xml version="1.0" encoding="UTF-8"?>
<svg width="200px" height="145px" viewBox="0 0 200 145" version="1.1" xmlns="http://www.w3.org/2000/svg" xmlns:xlink="http://www.w3.org/1999/xlink">
    <title>ShipStation Partner Logo - DPD</title>
    <g id="ShipStation-Partner-Logo---DPD" stroke="none" stroke-width="1" fill="none" fill-rule="evenodd">
        <g id="dpd-color" transform="translate(50.000000, 51.000000)" fill-rule="nonzero">
            <path d="M65.1073171,32.3012195 C62.9788193,32.8073301 60.7975734,33.0578787 58.6097561,33.047561 C53.1219512,33.047561 49.4560976,30.1170732 49.4560976,24.7609756 C49.3164857,22.5029469 50.1526965,20.2935927 51.7524129,18.6938763 C53.3521293,17.0941599 55.5614835,16.2579491 57.8195122,16.397561 C58.8415097,16.3563592 59.8611475,16.5244313 60.8158537,16.8914634 L60.8158537,9.52682927 L65.1073171,9.52682927 L65.1073171,32.3012195 Z M60.8158537,20.6890244 C59.9830736,20.3247927 59.0791205,20.152254 58.1707317,20.1841463 C56.9801397,20.0905851 55.8082717,20.522988 54.9638006,21.3674591 C54.1193295,22.2119302 53.6869265,23.3837983 53.7804878,24.5743902 C53.7804878,27.6146341 55.6792683,29.3268293 58.7195122,29.3268293 C59.4112461,29.3316699 60.1019595,29.2728858 60.7829268,29.1512195 L60.8158537,20.6890244 Z M100.328049,32.3012195 C98.1957109,32.806657 96.0109134,33.0571903 93.8195122,33.047561 C88.3317073,33.047561 84.6658537,30.1170732 84.6658537,24.7609756 C84.5298594,22.5039098 85.367238,20.2967072 86.966119,18.6978263 C88.5649999,17.0989453 90.7722025,16.2615667 93.0292683,16.397561 C94.0548377,16.3564019 95.0780519,16.524448 96.0365854,16.8914634 L96.0365854,9.52682927 L100.328049,9.52682927 L100.328049,32.3012195 Z M96.0146341,20.6890244 C95.1811947,20.3269256 94.2777284,20.1544797 93.3695122,20.1841463 C92.1779388,20.0867171 91.0037529,20.517868 90.1583715,21.3632495 C89.31299,22.208631 88.8818391,23.3828168 88.9792683,24.5743902 C88.9792683,27.6146341 90.8670732,29.3268293 93.9073171,29.3268293 C94.6027076,29.3321574 95.2971088,29.2733721 95.9817073,29.1512195 L96.0146341,20.6890244 Z M71.8682927,20.6890244 C72.6953644,20.4118774 73.5646173,20.2818609 74.4365854,20.304878 C77.0817073,20.304878 78.9036585,21.8414634 78.9036585,24.5853659 C78.9036585,27.8780488 76.8841463,29.304878 74.1841463,29.3378049 L74.1841463,33.0914634 L74.4036585,33.0914634 C79.8914634,33.0914634 83.2609756,29.9853659 83.2609756,24.4426829 C83.2609756,19.404878 79.7268293,16.4414634 74.4804878,16.4414634 C72.0957221,16.4442674 69.7323078,16.8908969 67.5109756,17.7585366 L67.5109756,39.1280488 L71.8353659,39.1280488 L71.8682927,20.6890244 Z" id="Shape" fill="#404041"></path>
            <path d="M26.1768293,19.602439 C25.9811155,19.705861 25.7469333,19.705861 25.5512195,19.602439 L24.5304878,18.9987805 C24.4389804,18.9417785 24.3634487,18.8624702 24.3109756,18.7682927 C24.2471153,18.6743856 24.2127219,18.5635623 24.2121951,18.45 L24.2121951,17.2646341 C24.2206939,17.043007 24.3349896,16.8389075 24.5195122,16.7158537 L36.7353659,9.52682927 L19.5365854,0.153658537 C19.320946,0.0500471111 19.0843483,-0.0025301537 18.845122,-0.000186024006 C18.605771,-0.00373783027 18.3688993,0.0489003384 18.1536585,0.153658537 L0.954878049,9.52682927 L20.2170732,20.7439024 C20.4099188,20.8551744 20.530617,21.0591127 20.5353659,21.2817073 L20.5353659,37.6463415 C20.5283483,37.871197 20.4031717,38.075652 20.2060976,38.1841463 L19.1743902,38.7658537 C19.0747732,38.8120036 18.9658489,38.8345397 18.8560976,38.8317073 C18.7392948,38.8341493 18.6233101,38.8117007 18.5158537,38.7658537 L17.4841463,38.1841463 C17.2901142,38.0724963 17.1660895,37.8699225 17.154878,37.6463415 L17.154878,23.0487805 C17.1402694,22.9355036 17.0809959,22.8327627 16.9902439,22.7634146 L7.79863978e-15,12.8963415 L7.79863978e-15,32.2463415 C0.0255215102,32.7271655 0.278139528,33.1672098 0.680487805,33.4317073 L18.1646341,43.7487805 C18.3732254,43.8620612 18.607817,43.9188172 18.845122,43.9137673 C19.0823176,43.9178127 19.3166565,43.8611178 19.5256098,43.7487805 L37.0097561,33.4317073 C37.4092563,33.1660249 37.6579878,32.7256479 37.6792683,32.2463415 L37.6792683,12.8963415 L26.1768293,19.602439 Z" id="Path" fill="#DC0032"></path>
        </g>
    </g>
</svg>