<?xml version="1.0" encoding="UTF-8"?>
<svg width="200px" height="145px" viewBox="0 0 200 145" version="1.1" xmlns="http://www.w3.org/2000/svg" xmlns:xlink="http://www.w3.org/1999/xlink">
    <title>ShipStation Partner Logo - USPS</title>
    <g id="ShipStation-Partner-Logo---USPS" stroke="none" stroke-width="1" fill="none" fill-rule="evenodd">
        <g id="usps" transform="translate(25.000000, 60.000000)">
            <path d="M151.783784,21.9243243 C151.798032,23.1353409 151.079501,24.2350591 149.964732,24.7084013 C148.849962,25.1817434 147.559701,24.9349778 146.698272,24.0836828 C145.836842,23.2323877 145.574825,21.9451373 146.034942,20.8248442 C146.495059,19.7045512 147.586197,18.9730568 148.797297,18.972973 C149.58668,18.9616656 150.347536,19.2678388 150.909065,19.822761 C151.470593,20.3776832 151.785749,21.1348631 151.783784,21.9243243 Z M146.274595,21.9243243 C146.293935,23.3128364 147.431808,24.4246329 148.820395,24.4117839 C150.208982,24.3989349 151.326086,23.2662724 151.319756,21.8776402 C151.313372,20.4890081 150.185944,19.3666212 148.797297,19.3664865 C148.120321,19.3606099 147.469869,19.629364 146.994478,20.1113754 C146.519088,20.5933868 146.259356,21.2474944 146.274595,21.9243243 L146.274595,21.9243243 Z M148.136757,23.652973 L147.708108,23.652973 L147.708108,20.2027027 L149.036216,20.2027027 C149.816216,20.2027027 150.160541,20.54 150.160541,21.1583784 C150.180714,21.660406 149.797507,22.0872295 149.296216,22.1210811 L150.322162,23.652973 L149.823243,23.652973 L148.853514,22.1210811 L148.150811,22.1210811 L148.150811,23.652973 L148.136757,23.652973 Z M148.698919,21.7556757 C149.218919,21.7556757 149.731892,21.7556757 149.731892,21.1513514 C149.731892,20.547027 149.331351,20.5540522 148.916757,20.5540522 L148.136757,20.5540522 L148.136757,21.7837838 L148.698919,21.7556757 Z" id="Shape" fill="#124B9F"></path>
            <polygon id="Path" fill="#FFFFFF" points="35.5637838 25.5502703 40.9956757 0 5.43189189 0 0 25.5502703 35.5637838 25.5502703"></polygon>
            <path d="M6.16972973,1.05405405 C6.16972973,1.05405405 25.9437838,5.11567568 26.3372973,5.18594595 C30.8767568,5.98702703 30.7432432,6.86540541 30.7432432,6.86540541 C33.9264865,6.86540541 34.312973,6.97783784 34.8751351,7.44162162 C36.5475676,8.84702703 33.8281081,12.9578378 33.8281081,12.9578378 C33.4345946,13.252973 4.01945946,24.5945946 4.01945946,24.5945946 L34.7978378,24.5945946 L39.8291892,0.941621622 L6.19081081,0.941621622 L6.19081081,1.04702703 L6.16972973,1.05405405 Z" id="Path" fill="#124B9F"></path>
            <path d="M29.1972973,8.72054054 C28.4976208,8.94083405 27.7726377,9.07071703 27.04,9.10702703 C26.512973,9.14918919 26.3372973,9.20540541 26.3372973,9.40216216 C26.3372973,9.59891892 26.4145946,9.68324324 27.1664865,9.68324324 C28.8951351,9.68324324 32.0081081,9.02972973 32.9427027,9.33189189 C33.4345946,9.48648649 33.0340541,10.3718919 32.6335135,11.5313514 C32.4789189,11.9810811 32.7810811,11.9459459 32.9637838,11.7491892 C33.4638959,11.0116779 33.8280118,10.1906322 34.0389189,9.32486486 C34.1654054,8.25675676 33.2518919,8.09513514 31.98,8.09513514 L29.9983784,8.09513514 C29.892973,8.09513514 29.8086486,8.16540541 29.6821622,8.33405405 C29.5581139,8.50402343 29.3906463,8.63751212 29.1972973,8.72054054 L29.1972973,8.72054054 Z" id="Path" fill="#124B9F"></path>
            <path d="M5.03135135,6.41567568 L1.16648649,24.5945946 C1.16648649,24.5945946 13,18.7832432 14.4475676,18.0454054 C17.9493854,16.1937955 21.5745342,14.5854879 25.2972973,13.2318919 C27.1420372,12.6236331 29.018725,12.1169274 30.9189189,11.7140541 C31.6216216,11.5875676 31.9167568,11.4681081 31.9027027,11.3416216 C31.9027027,10.9691892 31.2,10.9481081 29.9843243,11.0043243 C26.3583784,11.18 19.4016216,13.9416216 17.4059459,14.9956757 L15.1502703,7.96864865 L29.5837838,7.96864865 C30.2162162,6.18378378 21.0389189,6.43675676 20.7508108,6.41567568 L5.03135135,6.41567568 Z" id="Path" fill="#124B9F"></path>
            <path d="M48.2827027,9.97837838 C45.9427027,9.97837838 44.5443243,9.03675676 45.0010811,6.95675676 C45.767027,3.35891892 46.272973,0.941621622 46.272973,0.941621622 L48.2264865,0.941621622 C48.2264865,0.941621622 47.0318919,6.5 47.0810811,6.36648649 C46.7718919,7.77189189 47.0810811,8.56594595 48.5778378,8.58 C50.0745946,8.59405405 50.7351351,7.72972973 51.0302703,6.36648649 L52.1897297,0.948648649 L54.1432432,0.948648649 C52.8291892,6.96378378 54.1432432,0.948648649 52.8432432,6.96378378 C52.3935135,9.07189189 50.6156757,9.98540541 48.2756757,9.98540541 L48.2827027,9.97837838 Z" id="Path" fill="#124B9F"></path>
            <polygon id="Path" fill="#124B9F" points="61.9362162 9.81675676 59.4767568 9.81675676 57.2843243 3.23945946 57.2491892 3.23945946 55.8789189 9.81675676 54.1432432 9.81675676 56.0264865 0.941621622 58.5632432 0.941621622 60.6643243 7.59621622 60.6924324 7.59621622 62.0908108 0.941621622 63.8194595 0.941621622 61.9362162 9.81675676"></polygon>
            <polygon id="Path" fill="#124B9F" points="65.772973 9.81675676 63.8194595 9.81675676 65.7027027 0.941621622 67.6562162 0.941621622 65.772973 9.81675676"></polygon>
            <polygon id="Path" fill="#124B9F" points="76.1308108 2.35405405 73.3691892 2.35405405 71.7881081 9.81675676 69.8345946 9.81675676 71.4156757 2.35405405 68.6540541 2.35405405 68.9702703 0.941621622 76.4259459 0.941621622 76.1308108 2.35405405"></polygon>
            <polygon id="Path" fill="#124B9F" points="83.8675676 2.35405405 79.3983784 2.35405405 78.9064865 4.66594595 82.7994595 4.66594595 82.5183784 5.98 78.6183784 5.98 78.1124324 8.40432432 82.5816216 8.40432432 82.2794595 9.81675676 75.8497297 9.81675676 77.74 0.941621622 84.1627027 0.941621622 83.8675676 2.35405405"></polygon>
            <path d="M87.7183784,9.83783797 L83.712973,9.83783797 L85.5891892,0.941621622 L89.8967568,0.941621622 C92.5810811,0.941621622 93.4875676,2.72648649 93.1010811,4.98918919 C92.8131726,7.74531163 90.4894976,9.83843927 87.7183784,9.83783797 L87.7183784,9.83783797 Z M89.2432432,2.35405405 L87.2475676,2.35405405 L85.9756757,8.43243243 L87.3810811,8.43243243 C89.5945946,8.43243243 90.8945946,6.98486486 91.2178378,4.99621622 C91.4637838,3.59081081 90.8875676,2.38216216 89.2643243,2.38216216 L89.2432432,2.35405405 Z" id="Shape" fill="#124B9F"></path>
            <path d="M102.594595,2.35405405 L100.486486,2.35405405 C99.4254054,2.35405405 98.9405405,2.57891892 98.8421622,3.00756757 C98.547027,4.41297297 102.355676,5.54432432 102.011351,7.7227027 C101.814595,8.93837838 100.746486,9.83081081 98.3010811,9.83081081 L95.3075676,9.83081081 L95.6027027,8.42540541 L98.02,8.42540541 C98.7578378,8.42540541 99.6783784,8.46054054 99.8540541,7.7227027 C100.142162,6.44378378 96.3756757,5.18594595 96.6567568,3.06378378 C96.8324324,1.78486486 97.9708108,0.955675676 100.268649,0.955675676 L102.88973,0.955675676 L102.580541,2.36108108 L102.594595,2.35405405 Z" id="Path" fill="#124B9F"></path>
            <polygon id="Path" fill="#124B9F" points="111.09027 2.35405405 108.328649 2.35405405 106.747568 9.81675676 104.787027 9.81675676 106.375135 2.35405405 103.613514 2.35405405 103.92973 0.941621622 111.385405 0.941621622 111.09027 2.35405405"></polygon>
            <polygon id="Path" fill="#124B9F" points="111.441622 9.81675676 112.207568 8.40432432 115.004324 8.40432432 114.231351 2.70540541 110.324324 9.81675676 108.377838 9.81675676 113.458378 0.941621622 115.798378 0.941621622 117.182703 9.81675676 111.441622 9.81675676"></polygon>
            <polygon id="Path" fill="#124B9F" points="125.123243 2.35405405 122.361622 2.35405405 120.780541 9.81675676 118.82 9.81675676 120.408108 2.35405405 117.646486 2.35405405 117.955676 0.941621622 125.418378 0.941621622 125.123243 2.35405405"></polygon>
            <polygon id="Path" fill="#124B9F" points="132.838919 2.35405405 128.376757 2.35405405 127.884865 4.66594595 131.777838 4.66594595 131.496757 5.98 127.596757 5.98 127.090811 8.40432432 131.56 8.40432432 131.257838 9.81675676 124.821081 9.81675676 126.718378 0.941621622 133.141081 0.941621622 132.838919 2.35405405"></polygon>
            <path d="M139.753514,2.35405405 L137.645405,2.35405405 C136.584324,2.35405405 136.099459,2.57891892 136.001081,3.00756757 C135.705946,4.41297297 139.514595,5.54432432 139.17027,7.7227027 C138.973514,8.93837838 137.905405,9.83081081 135.46,9.83081081 L132.466486,9.83081081 L132.761622,8.42540541 L135.178919,8.42540541 C135.916757,8.42540541 136.837297,8.46054054 137.012973,7.7227027 C137.294054,6.44378378 133.499459,5.18594595 133.822703,3.06378378 C133.998378,1.78486486 135.12973,0.955675676 137.441622,0.955675676 L140.062703,0.955675676 L139.753514,2.36108108 L139.753514,2.35405405 Z" id="Path" fill="#124B9F"></path>
            <path d="M45.6264865,21.2216216 C45.3172973,21.2216216 44.98,21.1724324 44.6989189,21.1443243 L44.6005405,19.8583784 C44.8464865,19.8583784 45.1697297,19.9145946 45.4648649,19.9145946 C46.3805747,19.9839142 47.2063995,19.3652963 47.3972973,18.467027 C47.6081081,17.4972973 47.1162162,17.1389189 46.3924324,17.1389189 L44.7972973,17.1389189 L43.2162162,24.5945946 L41.2556757,24.5945946 L43.1389189,15.7194595 L47.3551351,15.7194595 C49.2735135,15.7194595 49.4632432,17.3918919 49.2594595,18.5302703 C48.8469892,20.1941479 47.310027,21.3299069 45.5983784,21.2356757 L45.6264865,21.2216216 Z" id="Path" fill="#124B9F"></path>
            <path d="M53.6091892,24.7702703 C52.4338177,24.8506314 51.2931172,24.3527076 50.5528961,23.4361768 C49.8126751,22.5196459 49.5659684,21.2997027 49.8918919,20.1675676 C50.3314378,17.3986071 52.7990515,15.4141838 55.5978378,15.5789189 C58.3172973,15.5789189 59.8913514,17.5324324 59.3221622,20.1675676 C58.6194595,23.392973 56.4059459,24.7702703 53.6302703,24.7702703 L53.6091892,24.7702703 Z M55.2675676,16.9913514 C53.4967568,16.9913514 52.3232432,18.1648649 51.8664865,20.1745946 C51.48,21.8962162 52.0913514,23.3648649 53.9183784,23.3648649 C55.7454054,23.3648649 56.8767568,22.1772973 57.2983784,20.1745946 C57.6848649,18.3827027 57.0735135,16.9913514 55.2675676,16.9913514 Z" id="Shape" fill="#124B9F"></path>
            <path d="M66.3913514,17.1459459 L64.2832432,17.1459459 C63.2221622,17.1459459 62.7372973,17.3637838 62.6389189,17.7994595 C62.3437838,19.2048649 66.1524324,20.3362162 65.8081081,22.5145946 C65.6113514,23.7232432 64.5432432,24.6227027 62.0978378,24.6227027 L59.1183784,24.6227027 L59.4135135,23.2172973 L61.8378378,23.2172973 C62.5827027,23.2172973 63.4962162,23.2524324 63.6718919,22.5145946 C63.9459459,21.2216216 60.1864865,19.9567568 60.4324324,17.8275676 C60.6010811,16.5486486 61.7394595,15.7194595 64.0443243,15.7194595 L66.6654054,15.7194595 L66.3562162,17.1248649 L66.3913514,17.1459459 Z" id="Path" fill="#124B9F"></path>
            <polygon id="Path" fill="#124B9F" points="74.872973 17.1459459 72.1113514 17.1459459 70.5302703 24.6086486 68.5767568 24.6086486 70.1578378 17.1459459 67.3962162 17.1459459 67.7054054 15.7335135 75.1681081 15.7335135 74.872973 17.1459459"></polygon>
            <polygon id="Path" fill="#124B9F" points="75.2383784 24.6086486 76.0043243 23.1962162 78.8010811 23.1962162 78.0210811 17.4902703 74.1210811 24.6086486 72.1675676 24.6086486 77.2551351 15.7335135 79.5951351 15.7335135 80.9794595 24.6086486 75.2383784 24.6086486"></polygon>
            <polygon id="Path" fill="#124B9F" points="87.9994595 24.6086486 81.9983784 24.6086486 83.8816216 15.7335135 85.8491892 15.7335135 84.2610811 23.1962162 88.3086486 23.1962162 87.9994595 24.6086486"></polygon>
            <path d="M98.5751351,17.1459459 L96.467027,17.1459459 C95.4059459,17.1459459 94.9210811,17.3637838 94.8227027,17.7994595 C94.5275676,19.2048649 98.3362162,20.3362162 97.9918919,22.5145946 C97.7951351,23.7232432 96.7340541,24.6227027 94.2816216,24.6227027 L91.2881081,24.6227027 L91.5832432,23.2172973 L94.0005405,23.2172973 C94.7454054,23.2172973 95.6589189,23.2524324 95.8345946,22.5145946 C96.1156757,21.2427027 92.3562162,19.9778378 92.6443243,17.8556757 C92.812973,16.5767568 93.9513514,15.7475676 96.2562162,15.7475676 L98.8772973,15.7475676 L98.5681081,17.152973 L98.5751351,17.1459459 Z" id="Path" fill="#124B9F"></path>
            <polygon id="Path" fill="#124B9F" points="106.705405 17.1459459 102.236216 17.1459459 101.744324 19.4648649 105.637297 19.4648649 105.356216 20.7718919 101.456216 20.7718919 100.95027 23.1962162 105.419459 23.1962162 105.117297 24.6086486 98.6875676 24.6086486 100.577838 15.7335135 107.000541 15.7335135 106.705405 17.1459459"></polygon>
            <path d="M112.327027,20.7789189 L113.788649,24.5945946 L111.680541,24.5945946 L110.043243,19.7459459 C110.291222,19.7634668 110.540129,19.7634668 110.788108,19.7459459 C111.76129,19.8517229 112.662501,19.2208748 112.896216,18.2702703 C113.008649,17.7151351 112.896216,17.1037838 111.821081,17.1037838 L110.064324,17.1037838 L108.49027,24.5945946 L106.536757,24.5945946 L108.42,15.7194595 L112.551892,15.7194595 C114.287568,15.7194595 114.976216,16.4994595 114.863784,17.9821622 C114.845101,19.4236104 113.759014,20.6270309 112.327027,20.792973 L112.327027,20.7789189 Z" id="Path" fill="#124B9F"></path>
            <polygon id="Path" fill="#124B9F" points="119.550811 24.6086486 117.238919 24.6086486 115.903784 15.7335135 117.857297 15.7335135 118.770811 22.8518919 122.663784 15.7335135 124.596216 15.7335135 119.550811 24.6086486"></polygon>
            <polygon id="Path" fill="#124B9F" points="125.854054 24.6086486 123.900541 24.6086486 125.776757 15.7335135 127.737297 15.7335135 125.854054 24.6086486"></polygon>
            <path d="M135.663784,17.2724324 C134.979411,17.0723273 134.268569,16.9775483 133.555676,16.9913514 C131.706796,16.994689 130.136962,18.3466557 129.859459,20.1745946 C129.437838,22.1772973 130.435676,23.3648649 132.206486,23.3648649 C133.007977,23.3610021 133.805854,23.2571366 134.581622,23.0556757 L134.131892,24.5945946 C133.407349,24.7173997 132.67429,24.783187 131.939459,24.7913514 C129.22,24.7913514 127.203243,23.3859459 127.884865,20.1886486 C128.566486,16.9913514 131.173514,15.6 133.9,15.6 C134.553313,15.6089033 135.204607,15.6747381 135.846486,15.7967568 L135.670811,17.2935135 L135.663784,17.2724324 Z" id="Path" fill="#124B9F"></path>
            <polygon id="Path" fill="#124B9F" points="143.548108 17.1459459 139.078919 17.1459459 138.58 19.4648649 142.48 19.4648649 142.191892 20.7718919 138.298919 20.7718919 137.792973 23.1962162 142.255135 23.1962162 141.96 24.6086486 135.53027 24.6086486 137.420541 15.7335135 143.843243 15.7335135 143.548108 17.1459459"></polygon>
            <polygon id="Path" fill="#EC2029" points="144.405405 13.1054054 144.538919 12.4518919 43.8345946 12.4518919 43.7010811 13.1054054 144.405405 13.1054054"></polygon>
        </g>
    </g>
</svg>