<?xml version="1.0" encoding="UTF-8"?>
<svg width="200px" height="145px" viewBox="0 0 200 145" version="1.1" xmlns="http://www.w3.org/2000/svg" xmlns:xlink="http://www.w3.org/1999/xlink">
    <title>ShipStation Partner Logo - UPS</title>
    <g id="ShipStation-Partner-Logo---UPS" stroke="none" stroke-width="1" fill="none" fill-rule="evenodd">
        <g id="UPS-Centered" transform="translate(74.000000, 42.000000)" fill-rule="nonzero">
            <path d="M0,35.3327665 C0,45.9205945 4.5764047,51.5771768 12.8316752,55.5534827 C21.0869456,59.5297887 25.8355525,61.5753425 25.8355525,61.5753425 C25.8355525,61.5753425 30.5841596,59.5297887 38.8394301,55.5534827 C47.0947006,51.5771768 51.6606686,45.9205945 51.6606686,35.3327665 L51.6606686,5.7400743 C42.8783551,1.91509751 35.3536395,0 25.5694218,0 C15.7852043,0 8.43790922,1.91509751 0,5.7400743 L0,35.3327665 Z" id="Path" fill="#FFB600"></path>
            <path d="M25.8355525,59.5245706 C24.1970224,58.8044521 19.9232761,56.8841363 13.6457221,53.8627699 C5.29652309,49.8342814 1.87856977,44.4699211 1.87856977,35.3327665 L1.87856977,18.603059 C14.3032215,6.17840724 33.8090376,4.10676225 49.7820989,6.07926051 L49.7820989,35.3327665 C49.7820989,44.4647028 46.3745821,49.8342814 38.0149465,53.8627699 C31.7373927,56.878918 27.4688645,58.8044521 25.8355525,59.5245706 Z" id="Path" fill="#412020"></path>
            <path d="M47.5330335,59.0392733 C47.5606574,60.0421304 46.9772583,60.961526 46.0581261,61.363622 C45.1389938,61.7657182 44.0678279,61.5701758 43.3500825,60.8692042 C42.6323369,60.1682572 42.4114619,59.1020221 42.791682,58.1736268 C43.1719022,57.2452314 44.0772264,56.6402261 45.0804562,56.6440968 C45.7247564,56.6315104 46.3471681,56.877956 46.8082073,57.328205 C47.2692464,57.7784539 47.5303605,58.3948558 47.5330335,59.0392733 Z M43.2279776,59.0392733 C43.2123763,59.5436499 43.4026301,60.0326716 43.7549921,60.3938919 C44.1073544,60.7551123 44.5915024,60.957447 45.0961109,60.9544392 C45.5929621,60.9532962 46.0680588,60.7504188 46.4124314,60.3922714 C46.756804,60.0341238 46.9409014,59.5514394 46.9224982,59.054928 C46.9224982,58.0347143 46.0954516,57.2076678 45.0752379,57.2076678 C44.0550244,57.2076678 43.2279776,58.0347143 43.2279776,59.054928 L43.2279776,59.0392733 Z M44.699524,60.2916532 L44.1411713,60.2916532 L44.1411713,57.9225679 C44.444287,57.8690518 44.7518189,57.8445889 45.0595832,57.8495125 C45.347531,57.8265272 45.6359193,57.8881952 45.8892848,58.0269328 C46.0431144,58.1559071 46.1295966,58.3480897 46.1241061,58.5487578 C46.103424,58.8252625 45.9004836,59.0538373 45.6283725,59.1071105 L45.6283725,59.1332018 C45.8712355,59.2320766 46.0397871,59.4568122 46.0667054,59.7176458 C46.0903288,59.9258642 46.1485285,60.1286817 46.2389076,60.3177443 L45.6492455,60.3177443 C45.5572844,60.1336106 45.4939373,59.9365309 45.4613884,59.7333005 C45.4196425,59.4723879 45.2735314,59.3523683 44.9395636,59.3523683 L44.678651,59.3523683 L44.699524,60.2916532 Z M44.699524,58.9349082 L44.9656547,58.9349082 C45.2735314,58.9349082 45.5187891,58.8305434 45.5187891,58.5852855 C45.5187891,58.3400278 45.3622418,58.220008 44.9969643,58.220008 C44.8936875,58.2172203 44.7904224,58.2259716 44.6890876,58.2460994 L44.699524,58.9349082 Z" id="Shape" fill="#FFB600"></path>
            <path d="M43.4680172,35.4840957 C43.4367078,34.0334223 42.6383155,33.2506849 40.639726,32.0609241 C36.8669317,29.8222951 36.1729045,27.9698165 36.1572498,25.4963664 C36.1572498,21.7496634 39.2881994,19.5840898 42.2782564,19.5266891 C44.0590651,19.4576059 45.8082991,20.0111609 47.2251568,21.0921639 C47.2251568,22.4175993 47.2251568,23.7482529 47.2251568,25.0736882 C46.1820343,23.9385028 44.7404981,23.2504542 43.2018865,23.1533725 C41.9181972,23.1533725 40.5927617,23.6751974 40.5301429,25.3398189 C40.4675238,27.0044405 41.8555782,27.6567217 43.5358543,28.7003714 C47.3086486,30.9755282 47.9922394,32.9845542 47.9191839,35.6615162 C47.8252555,38.5941722 45.8736301,41.8138321 41.3807173,41.8660146 C39.6100562,41.8608215 37.8730927,41.3815349 36.3503251,40.4779602 C36.3503251,39.0585964 36.3503251,37.6340144 36.3503251,36.2042142 C37.5564354,37.3073414 39.1025978,37.966301 40.7336545,38.0723473 C42.3982761,38.0723473 43.4941085,37.0913164 43.4575808,35.4945321" id="Path" fill="#FFB600"></path>
            <path d="M11.1200894,37.9471094 C11.8780431,37.9954187 12.6329019,37.8135249 13.2856629,37.4252844 C13.2856629,31.6121546 13.2856629,25.7677154 13.2856629,19.9858951 L17.8829406,19.9493673 C17.8829406,26.6235082 17.8829406,33.3915777 17.8829406,40.0709369 C16.134827,41.22417 13.7709601,41.8816693 10.9583237,41.8607965 C6.4706292,41.8138321 4.25809148,39.319509 4.25287323,34.4665371 C4.24765499,29.6135651 4.25287323,24.8493035 4.25287323,20.0537323 L8.75100418,20.0015498 C8.75100418,24.880613 8.71969467,29.7909856 8.75100418,34.6909217 C8.73013118,36.0059206 9.03800789,37.9314547 11.1200894,37.9471094 Z" id="Path" fill="#FFB600"></path>
            <path d="M26.3625958,19.4379789 C24.1569026,19.3577173 21.9771802,19.9353437 20.1006965,21.0973823 C20.1006965,31.1425123 20.1006965,41.3807173 20.1424425,51.2118993 L24.7449385,51.2118993 C24.7449385,48.0357247 24.7449385,44.8230226 24.7449385,41.5737926 C25.425025,41.7577505 26.1278576,41.8438477 26.8322383,41.8294868 C31.9930868,41.8399235 34.9622707,37.2061179 34.9622707,30.4171755 C34.9622707,23.6282331 31.9043766,19.4431971 26.3625958,19.4379789 Z M26.2582307,38.0932203 C25.742967,38.0878146 25.232607,37.9924532 24.7501568,37.8114349 C24.7501568,33.0523914 24.7501568,28.2724751 24.7501568,23.5134316 C25.2695979,23.2918562 25.8291998,23.1799359 26.3939052,23.1844007 C29.0969585,23.1844007 30.2188821,25.3398189 30.2188821,30.55285 C30.2188821,35.6249885 28.9351927,38.0932203 26.2582307,38.0932203 Z" id="Shape" fill="#FFB600"></path>
        </g>
    </g>
</svg>