<?xml version="1.0" encoding="UTF-8"?>
<svg width="200px" height="145px" viewBox="0 0 200 145" version="1.1" xmlns="http://www.w3.org/2000/svg" xmlns:xlink="http://www.w3.org/1999/xlink">
    <title>ShipStation Partner Logo - DHL</title>
    <g id="ShipStation-Partner-Logo---DHL" stroke="none" stroke-width="1" fill="none" fill-rule="evenodd">
        <g id="DHL_Logo" transform="translate(35.000000, 58.000000)" fill-rule="nonzero">
            <polygon id="Path" fill="#FECC00" points="130.68441 0 130.68441 28.8408718 0 28.8408718 0 0 130.68441 0"></polygon>
            <path d="M42.1355128,12.0506154 C41.5644359,12.8239487 40.6089231,14.168359 40.0274359,14.9535897 C39.7322308,15.3528974 39.1990769,16.0778974 40.9665897,16.0778974 C42.8367179,16.0778974 50.2726154,16.0778974 50.2726154,16.0778974 C50.2726154,16.0778974 51.7724359,14.0374872 53.0298462,12.3309487 C54.7401026,10.0094615 53.1778205,5.17910256 47.0632821,5.17910256 C41.5904615,5.17910256 22.9828718,5.17910256 22.9828718,5.17910256 L18.8076154,10.8519487 C18.8076154,10.8519487 40.4527692,10.8519487 41.5636923,10.8519487 C42.7125385,10.8519487 42.6969231,11.2891795 42.1355128,12.0506154 Z M35.2989487,17.4773333 C33.5314359,17.4773333 34.0645897,16.7508462 34.3597949,16.3515385 C34.9412821,15.5663077 35.9124103,14.2360256 36.4834872,13.4626923 C37.045641,12.7012564 37.0605128,12.2640256 35.9101795,12.2640256 C34.8,12.2640256 25.5028974,12.2640256 25.5028974,12.2640256 L17.1174359,23.6602821 C17.1174359,23.6602821 32.0940769,23.6602821 37.5668974,23.6602821 C44.3209231,23.6602821 48.0812564,19.0663846 49.2405128,17.4780769 C49.2405128,17.4773333 37.1683333,17.4773333 35.2989487,17.4773333 Z M48.6017692,23.6602821 L60.5981026,23.6602821 L65.1458974,17.4765897 L53.1510513,17.4780769 C53.1473333,17.4773333 48.6017692,23.6602821 48.6017692,23.6602821 Z M79.5536923,5.17910256 L74.952359,11.4289744 L69.5985128,11.4289744 L74.1976154,5.17910256 L62.205,5.17910256 L54.1816667,16.0778974 L83.5237179,16.0778974 L91.5448205,5.17910256 L79.5536923,5.17910256 Z M65.9519487,23.6602821 L77.9438205,23.6602821 L82.4938462,17.4780769 L70.5019744,17.4780769 C70.4975128,17.4773333 65.9519487,23.6602821 65.9519487,23.6602821 Z M0,19.9163077 L0,21.2294872 L16.7069744,21.2294872 L17.6721538,19.9163077 L0,19.9163077 Z M19.4679231,17.4773333 L0,17.4773333 L0,18.7890256 L18.5005128,18.7890256 L19.4679231,17.4773333 Z M0,23.6602821 L14.9171538,23.6602821 L15.8778718,22.3545385 L0,22.3545385 L0,23.6602821 Z M113.079179,21.2287436 L130.68441,21.2287436 L130.68441,19.9155641 L114.045846,19.9155641 L113.079179,21.2287436 Z M111.290846,23.6602821 L130.68441,23.6602821 L130.68441,22.3545385 L112.250821,22.3545385 L111.290846,23.6602821 Z M115.838641,17.4773333 L114.874205,18.7905128 L130.68441,18.7905128 L130.68441,17.4773333 L115.838641,17.4773333 L115.838641,17.4773333 Z M100.131051,16.0778974 L108.153641,5.17910256 L95.4523846,5.17910256 C95.4479231,5.17910256 87.4238462,16.0778974 87.4238462,16.0778974 L100.131051,16.0778974 Z M86.3954615,17.4773333 C86.3954615,17.4773333 85.5187692,18.6752564 85.0926923,19.2522821 C83.5869231,21.2867436 84.9186923,23.6602821 89.8338205,23.6602821 C95.5118718,23.6602821 109.093538,23.6602821 109.093538,23.6602821 L113.643564,17.4780769 L86.3954615,17.4780769 L86.3954615,17.4773333 Z" id="Shape" fill="#D50029"></path>
        </g>
    </g>
</svg>